<?xml version="1.0" encoding="UTF-8" standalone="no"?>
<!-- Created with Inkscape (http://www.inkscape.org/) -->

<svg
   xmlns:dc="http://purl.org/dc/elements/1.1/"
   xmlns:cc="http://creativecommons.org/ns#"
   xmlns:rdf="http://www.w3.org/1999/02/22-rdf-syntax-ns#"
   xmlns:svg="http://www.w3.org/2000/svg"
   xmlns="http://www.w3.org/2000/svg"
   xmlns:sodipodi="http://sodipodi.sourceforge.net/DTD/sodipodi-0.dtd"
   xmlns:inkscape="http://www.inkscape.org/namespaces/inkscape"
   width="115.213mm"
   height="128.00101mm"
   viewBox="0 0 408.23503 453.54687"
   id="svg3349"
   version="1.1"
   inkscape:version="0.91 r13725"
   sodipodi:docname="oas-logo.svg">
  <defs
     id="defs3351" />
  <sodipodi:namedview
     id="base"
     pagecolor="#ffffff"
     bordercolor="#666666"
     borderopacity="1.0"
     inkscape:pageopacity="0.0"
     inkscape:pageshadow="2"
     inkscape:zoom="0.35"
     inkscape:cx="380.71429"
     inkscape:cy="520"
     inkscape:document-units="px"
     inkscape:current-layer="layer1"
     showgrid="false"
     inkscape:window-width="1920"
     inkscape:window-height="1029"
     inkscape:window-x="0"
     inkscape:window-y="0"
     inkscape:window-maximized="1" />
  <metadata
     id="metadata3354">
    <rdf:RDF>
      <cc:Work
         rdf:about="">
        <dc:format>image/svg+xml</dc:format>
        <dc:type
           rdf:resource="http://purl.org/dc/dcmitype/StillImage" />
        <dc:title />
      </cc:Work>
    </rdf:RDF>
  </metadata>
  <g
     inkscape:label="Layer 1"
     inkscape:groupmode="layer"
     id="layer1"
     transform="translate(0,-598.81535)">
    <g
       id="g3334">
      <path
         inkscape:connector-curvature="0"
         id="path6"
         style="fill:#1b1918;fill-rule:evenodd"
         d="m 195.1328,1049.8997 -10.3553,-55.68721 c -0.2539,-1.3552 -1.5281,-2.838 -2.8346,-3.2958 l -39.8245,-17.0691 c -1.2291,-0.6376 -3.1604,-0.516 -4.3056,0.2701 l -47.2892,32.44591 c -1.1376,0.7753 -2.8684,0.6231 -3.8478,-0.356 L 46.1517,965.68289 c -0.9796,-0.9788 -1.1386,-2.7068 -0.3563,-3.844 l 33.0208,-48.1198 c 0.7827,-1.1382 0.9218,-3.0892 0.3124,-4.3257 L 63.326,870.78979 c -0.4337,-1.3108 -1.9006,-2.5881 -3.259,-2.846 L 2.4696,857.22339 C 1.1112,856.97199 0,855.63399 3e-4,854.25239 L 0,796.93559 c 3e-4,-1.3788 1.1112,-2.7167 2.4701,-2.9676 l 57.5969,-10.7172 c 1.3587,-0.2582 2.8256,-1.5321 3.259,-2.846 l 15.8029,-38.607 c 0.6091,-1.2399 0.4702,-3.1913 -0.3121,-4.3257 L 45.7954,689.3563 c -0.7818,-1.1415 -0.623,-2.8729 0.3561,-3.8489 l 40.5243,-40.5275 c 0.9788,-0.976 2.71,-1.139 3.8475,-0.356 l 47.2898,32.449 c 1.1449,0.779 3.0762,0.9006 4.3056,0.2676 l 39.8233,-17.0734 c 1.3074,-0.4538 2.5816,-1.9343 2.8353,-3.2955 l 10.3555,-55.6841 c 0.2577,-1.3615 1.5919,-2.4687 2.9741,-2.4687 l 57.3134,0.003 c 1.3822,2e-4 2.7267,1.1111 2.9736,2.4692 l 10.1083,54.3186 c 0.2469,1.3581 1.5378,2.8123 2.8559,3.225 l 42.3604,16.958 c 1.2433,0.6058 3.1875,0.4635 4.3259,-0.322 l 44.9623,-30.8531 c 1.1381,-0.7793 2.8727,-0.6203 3.8509,0.3557 l 40.5252,40.5306 c 0.972,0.9757 1.1313,2.7071 0.3552,3.8486 l -30.3145,44.16579 c -0.7787,1.1389 -0.8405,3.0455 -0.1449,4.2344 l 10.3986,19.4782 c 0.6307,1.2334 0.099,2.6728 -1.1781,3.2012 l -54.6051,22.5995 c -5.535,-13.6891 -13.8504,-26.5158 -24.9489,-37.6146 -44.28,-44.27969 -116.0714,-44.27939 -160.3517,0 -44.2794,44.2806 -44.2797,116.0716 0,160.3516 44.2803,44.28 116.072,44.28 160.352,3e-4 11.0996,-11.0996 19.4153,-23.9281 24.9503,-37.6177 l 54.6069,22.5975 c 1.2772,0.5278 1.8056,1.9647 1.1789,3.2009 l -10.3998,19.4785 c -0.6945,1.1926 -0.6375,3.0952 0.1457,4.2344 l 30.3143,44.1689 c 0.7761,1.1381 0.6165,2.8729 -0.3555,3.8449 l -40.5241,40.53091 c -0.9793,0.9791 -2.7138,1.1387 -3.8517,0.3563 l -44.962,-30.85741 c -1.1392,-0.7786 -3.0827,-0.9246 -4.3262,-0.3186 l -42.3607,16.958 c -1.3175,0.4161 -2.6084,1.8598 -2.8553,3.2219 l -10.1084,54.31831 c -0.2469,1.355 -1.5922,2.4693 -2.9747,2.4696 l -57.312,0.01 c -1.3864,0 -2.7204,-1.1064 -2.9783,-2.4619 z M 146.0016,864.84519 c 0.2375,-0.2602 0.4116,-0.5422 0.5224,-0.8674 0.1108,-0.3036 0.1902,-0.6287 0.2375,-0.9541 0,-0.3252 0,-0.5854 -0.016,-0.8241 0,-0.2383 -0.032,-0.4767 -0.079,-0.737 -0.079,-0.4989 -0.2058,-0.9975 -0.3957,-1.5395 -0.1902,-0.5638 -0.396,-1.0627 -0.6018,-1.5613 -0.2217,-0.477 -0.3802,-0.8889 -0.5225,-1.1925 -1.4249,-3.5779 -2.5015,-7.9362 -3.2139,-13.0969 -0.7126,-5.139 -1.061,-11.1019 -1.061,-17.8671 -0.047,-6.635 0.2852,-12.5546 0.9978,-17.7154 0.7124,-5.1607 1.8048,-9.5408 3.2771,-13.1184 l 1.0452,-2.8622 c 0.1582,-0.3254 0.3007,-0.7806 0.4272,-1.3226 0.1267,-0.5423 0.174,-1.1495 0.1425,-1.8 -0.047,-0.26 -0.1267,-0.542 -0.2375,-0.8238 -0.1108,-0.282 -0.2849,-0.5422 -0.5224,-0.7373 -0.1426,-0.2602 -0.3325,-0.4552 -0.5701,-0.6287 -0.2375,-0.1519 -0.5221,-0.282 -0.8549,-0.4121 -0.5383,-0.1951 -1.1239,-0.3252 -1.7731,-0.3686 -0.6332,-0.0218 -1.2509,0.0434 -1.8368,0.2384 -0.6647,0.1302 -1.2824,0.3688 -1.8681,0.7158 -0.57,0.3251 -1.1242,0.6936 -1.6466,1.1058 -0.5224,0.3903 -1.0134,0.8022 -1.4882,1.2574 -0.4592,0.4337 -0.8867,0.8893 -1.2665,1.3445 l -1.2351,1.5613 c -2.9449,4.4232 -5.1457,9.4539 -6.6177,15.0699 -1.4726,5.616 -2.2167,11.7958 -2.2167,18.496 0,6.8304 0.7599,13.0533 2.2481,18.6477 1.4882,5.616 3.689,10.6249 6.5863,15.0483 l 1.2351,1.5613 2.7547,2.602 c 0.5224,0.4552 1.0766,0.8455 1.6466,1.1491 0.5857,0.3254 1.2034,0.5423 1.8681,0.6721 0.5859,0.1301 1.2036,0.1953 1.8368,0.152 0.6492,-0.0219 1.2348,-0.152 1.7731,-0.4119 0.3328,-0.0652 0.6174,-0.1953 0.8549,-0.347 0.2376,-0.1519 0.4275,-0.3036 0.5701,-0.4337 z m 36.5731,-71.1652 -0.2848,-0.3903 c -0.1902,-0.3251 -0.4278,-0.6503 -0.7127,-1.0191 -0.2849,-0.3469 -0.6174,-0.7372 -0.9975,-1.1925 -0.3801,-0.4552 -0.8073,-0.9108 -1.2665,-1.3445 -0.4592,-0.4552 -0.9658,-0.8671 -1.4885,-1.2574 -0.5221,-0.4122 -1.0763,-0.7807 -1.6781,-1.1058 -0.5856,-0.347 -1.1557,-0.5856 -1.7416,-0.7158 -0.6647,-0.195 -1.2983,-0.2602 -1.9315,-0.2384 -0.6333,0.0434 -1.2507,0.1735 -1.8681,0.3686 -0.2378,0.1301 -0.4909,0.2602 -0.744,0.4121 -0.2535,0.1735 -0.4751,0.3685 -0.6812,0.6287 -0.1899,0.1951 -0.3481,0.4553 -0.4748,0.7373 -0.1264,0.2818 -0.1899,0.5638 -0.1899,0.8238 -0.032,0.6505 0.016,1.2577 0.1267,1.8 0.1264,0.542 0.2372,0.9972 0.3481,1.3226 l 1.235,2.8622 c 1.4247,3.5776 2.5175,7.9577 3.2616,13.1184 0.7282,5.1608 1.108,11.0804 1.108,17.7154 0,6.7652 -0.3798,12.7281 -1.108,17.8671 -0.7441,5.1607 -1.8369,9.519 -3.2616,13.0969 l -0.8549,2.0815 c -0.048,0.0652 -0.1426,0.3254 -0.2852,0.7806 -0.1423,0.4553 -0.2849,0.9542 -0.4113,1.518 -0.1267,0.5635 -0.1743,1.0624 -0.1584,1.4743 0,0.3254 0.064,0.6505 0.1899,0.9541 0.1267,0.3252 0.2849,0.6072 0.4748,0.8674 0.2061,0.1301 0.4277,0.2818 0.6812,0.4337 0.2531,0.1517 0.5062,0.2818 0.744,0.347 0.6174,0.2599 1.2348,0.39 1.8681,0.4119 0.6332,0.0433 1.2668,-0.0219 1.9315,-0.152 0.5859,-0.1298 1.156,-0.3467 1.7416,-0.6721 0.6018,-0.3036 1.156,-0.6939 1.6781,-1.1491 l 2.755,-2.602 1.52,-1.9516 c 2.8499,-4.4235 4.9872,-9.4105 6.4278,-14.9397 1.4253,-5.5511 2.1691,-11.6657 2.2167,-18.366 0,-6.44 -0.6809,-12.3811 -2.0582,-17.8237 -1.3615,-5.4428 -3.4039,-10.343 -6.1113,-14.7016 z m -37.8082,-7.5458 c 0.3801,0.1301 0.6968,0.282 0.9502,0.4771 0.2534,0.1953 0.4751,0.4337 0.665,0.6939 2.3905,-1.4746 4.8603,-2.4718 7.4095,-2.9923 2.5489,-0.4989 5.0981,-0.5204 7.6788,-0.0652 2.5647,0.4771 5.0663,1.4528 7.5203,2.9274 0.1899,-0.195 0.4116,-0.3903 0.6494,-0.5638 0.2531,-0.1951 0.538,-0.347 0.8705,-0.4771 0.2375,-0.0649 0.4751,-0.1301 0.7285,-0.1735 0.2534,-0.0649 0.5066,-0.0867 0.7914,-0.0867 l -0.475,-0.3901 0,-0.2602 c 0.048,0 0.095,-0.1301 0.1425,-0.3469 0.048,-0.2169 0.095,-0.4989 0.1426,-0.8241 0.016,-0.0218 0.016,-0.1085 0.032,-0.282 0,-0.1517 -0.032,-0.2818 -0.1264,-0.3685 l -0.095,0 c -0.095,-0.0434 -0.1896,-0.0216 -0.269,0.0867 -0.079,0.0867 -0.1582,0.1517 -0.2058,0.1735 l -0.3798,0.7807 -0.095,0.1301 c -0.095,-0.0652 -0.1902,-0.1086 -0.2693,-0.1301 -0.079,-0.0219 -0.1584,-0.0652 -0.2058,-0.1302 l 0,-1.3011 -0.3801,-0.5204 -0.2849,0.2602 c -0.1423,0.152 -0.2375,0.3254 -0.3007,0.5423 -0.048,0.2168 -0.079,0.3467 -0.079,0.3685 l 0,0.1301 c -0.095,0 -0.1899,-0.0218 -0.269,-0.0867 -0.079,-0.0434 -0.1582,-0.1083 -0.2058,-0.1735 l 0,-0.1301 c 0.016,-0.0216 0.048,-0.1517 0.095,-0.3685 0.063,-0.2387 0.095,-0.4556 0.095,-0.6724 0,-0.0216 0,-0.0868 -0.016,-0.2169 -0.031,-0.1301 -0.079,-0.2168 -0.174,-0.3036 -0.1426,-0.0649 -0.2531,-0.0433 -0.3481,0.0219 -0.079,0.0867 -0.1267,0.1516 -0.1267,0.2384 -0.1426,0.1953 -0.2378,0.3903 -0.3011,0.5422 -0.047,0.1517 -0.079,0.2384 -0.079,0.2384 l 0,0.1301 c -0.095,0 -0.19,-0.0215 -0.2849,-0.0867 -0.095,-0.0434 -0.1902,-0.1083 -0.2852,-0.1735 0,0 0.016,-0.1301 0.048,-0.3469 0.032,-0.2169 0.047,-0.4987 0.047,-0.8238 0,-0.0218 0,-0.0867 -0.016,-0.2168 -0.032,-0.1302 -0.079,-0.2169 -0.1741,-0.3036 -0.1423,0 -0.2534,0.0433 -0.3483,0.1301 -0.079,0.0649 -0.1267,0.1083 -0.1267,0.1301 l -0.3799,1.0406 -0.095,0.1301 c -0.095,0 -0.1902,-0.0215 -0.2693,-0.0867 -0.095,-0.0434 -0.1582,-0.1083 -0.2055,-0.1735 l 0,-1.3008 c 0,-0.0219 0,-0.0868 -0.016,-0.2169 -0.031,-0.1301 -0.079,-0.2168 -0.174,-0.3036 -0.095,0 -0.19,0.0649 -0.2532,0.1517 -0.079,0.0867 -0.1267,0.1735 -0.1267,0.2386 -0.095,0.2169 -0.1902,0.4119 -0.2534,0.6072 -0.079,0.1951 -0.1267,0.2818 -0.1267,0.3036 l 0,0.26 -0.5701,-0.26 0,-0.1301 c 0,-0.0218 0.016,-0.1519 0.032,-0.3903 0.016,-0.2387 0.016,-0.4989 -0.032,-0.7807 0,-0.0218 0,-0.0867 -0.016,-0.1953 -0.032,-0.1083 -0.079,-0.1735 -0.1743,-0.195 0,-0.0652 -0.016,-0.1086 -0.047,-0.1086 -0.032,-0.0215 -0.048,-0.0215 -0.048,-0.0215 -0.095,0 -0.19,0.0649 -0.2535,0.1516 -0.079,0.0868 -0.1267,0.1735 -0.1267,0.2387 -0.047,0.2169 -0.095,0.4337 -0.1267,0.6721 -0.047,0.2169 -0.063,0.347 -0.063,0.3688 l -0.095,0.1301 c -0.095,0 -0.1899,-0.0218 -0.2848,-0.0652 -0.095,-0.0434 -0.19,-0.0649 -0.2849,-0.0649 l 0,-1.3011 c 0,-0.1301 -0.095,-0.2602 -0.2852,-0.3903 -0.1426,0 -0.2375,0.0433 -0.3007,0.1301 -0.048,0.0649 -0.079,0.1082 -0.079,0.1301 -0.095,0.2602 -0.1585,0.4986 -0.2061,0.7154 -0.047,0.1953 -0.079,0.3036 -0.079,0.3255 l -0.095,0.1301 c -0.095,0 -0.1899,0 -0.269,-0.0219 -0.095,0 -0.1584,-0.0433 -0.206,-0.1082 l 0,-0.1302 c 0,-0.0218 0,-0.1301 -0.016,-0.3254 0,-0.2168 -0.032,-0.4552 -0.079,-0.7154 0,0 0,-0.0649 -0.016,-0.1517 -0.032,-0.0867 -0.079,-0.1735 -0.1743,-0.2387 l -0.095,0 c -0.095,0 -0.1902,0.0652 -0.2534,0.152 -0.079,0.0867 -0.1267,0.1735 -0.1267,0.2384 -0.095,0.2168 -0.1423,0.4118 -0.1582,0.6071 -0.031,0.1951 -0.031,0.2818 -0.031,0.3036 l -0.095,0.1301 -0.5698,0 0,-0.1301 c 0,-0.0867 0,-0.2168 -0.016,-0.4337 0,-0.1953 -0.031,-0.4121 -0.079,-0.6071 0,0 -0.016,-0.065 -0.063,-0.1517 -0.048,-0.0867 -0.1267,-0.1735 -0.2217,-0.2387 l -0.095,0 c -0.048,0 -0.095,0.0652 -0.1426,0.152 -0.047,0.0867 -0.095,0.1734 -0.1426,0.2384 -0.047,0.2168 -0.095,0.4118 -0.1264,0.6071 -0.048,0.1951 -0.063,0.2818 -0.063,0.3036 l 0,0.1301 -0.5701,0 0,-0.1301 c 0,-0.0218 -0.016,-0.1085 -0.063,-0.3036 -0.032,-0.1953 -0.079,-0.3903 -0.1267,-0.6071 0,-0.065 -0.016,-0.1517 -0.063,-0.2384 -0.032,-0.0868 -0.079,-0.152 -0.1264,-0.152 -0.048,-0.0649 -0.079,-0.1083 -0.095,-0.1083 -0.016,-0.0218 -0.047,-0.0218 -0.095,-0.0218 -0.095,0.0218 -0.1585,0.0868 -0.2058,0.2169 -0.048,0.1301 -0.079,0.2168 -0.079,0.3036 -0.095,0.2168 -0.1426,0.4118 -0.1585,0.6071 -0.032,0.1951 -0.032,0.2818 -0.032,0.3036 l 0,0.1301 c -0.095,0 -0.1741,0 -0.2376,0.0216 -0.063,0 -0.1423,0.0434 -0.2372,0.1085 l 0,-0.2602 c 0,-0.0218 -0.016,-0.1085 -0.063,-0.3036 -0.048,-0.1953 -0.1267,-0.3903 -0.2217,-0.6071 0,0 0,-0.065 -0.016,-0.1517 -0.032,-0.0867 -0.079,-0.1735 -0.174,-0.2387 l -0.095,0 c -0.1426,0.0219 -0.2375,0.0868 -0.3007,0.1953 -0.048,0.1083 -0.079,0.1735 -0.079,0.1951 -0.047,0.2168 -0.063,0.4337 -0.079,0.6721 -0.016,0.2168 -0.016,0.3469 -0.016,0.3687 l 0,0.1301 c -0.095,0 -0.1899,0 -0.2848,0.0216 -0.095,0 -0.1902,0.0434 -0.2852,0.1086 l -0.095,-0.2603 c 0,-0.0218 0,-0.1085 -0.016,-0.3036 -0.032,-0.1953 -0.079,-0.3903 -0.1741,-0.6071 0,-0.0216 0,-0.0649 -0.016,-0.1301 0,-0.0868 -0.032,-0.1302 -0.079,-0.1302 -0.048,-0.0649 -0.095,-0.1082 -0.1267,-0.1082 -0.048,-0.0219 -0.063,-0.0219 -0.063,-0.0219 -0.095,0.0652 -0.1584,0.152 -0.2061,0.2387 -0.047,0.0868 -0.079,0.1517 -0.079,0.1517 -0.048,0.2602 -0.079,0.5204 -0.079,0.7373 -0.016,0.2168 -0.016,0.3685 -0.016,0.4337 l 0,0.1301 c -0.095,0 -0.1899,0 -0.2849,0.0215 -0.095,0 -0.1899,0.0434 -0.2849,0.1086 l -0.095,-0.1301 c 0,-0.0652 -0.016,-0.2169 -0.063,-0.4337 -0.047,-0.2169 -0.1267,-0.4771 -0.2217,-0.7373 0,0 -0.016,-0.0219 -0.063,-0.0652 -0.032,-0.0431 -0.079,-0.0649 -0.1267,-0.0649 l -0.1902,0 c -0.095,0 -0.1423,0.0649 -0.1582,0.1516 -0.032,0.0868 -0.032,0.1735 -0.032,0.2387 l 0,1.171 -0.5698,0.2602 -0.095,-0.2602 c 0,-0.0218 -0.016,-0.1086 -0.064,-0.3036 -0.048,-0.1953 -0.1267,-0.3903 -0.2216,-0.6072 0,-0.0652 -0.016,-0.1301 -0.063,-0.1953 -0.032,-0.0649 -0.079,-0.1301 -0.1267,-0.195 l -0.19,0 c -0.095,0.0867 -0.1584,0.1735 -0.206,0.3036 -0.047,0.1301 -0.079,0.195 -0.079,0.2168 -0.048,0.2818 -0.048,0.542 -0.032,0.7807 0.016,0.2384 0.032,0.3685 0.032,0.3903 l 0,0.1298 c -0.095,0 -0.19,0.0219 -0.2849,0.0652 -0.095,0.0434 -0.1899,0.065 -0.2852,0.065 l 0,-0.1302 c 0,-0.0215 -0.016,-0.1082 -0.063,-0.3033 -0.047,-0.1953 -0.1267,-0.3903 -0.2217,-0.6071 0,-0.0652 -0.016,-0.1302 -0.063,-0.1735 -0.032,-0.0652 -0.079,-0.0868 -0.1267,-0.0868 -0.048,-0.0652 -0.095,-0.1085 -0.1267,-0.1085 -0.047,0 -0.063,0.0433 -0.063,0.1085 -0.1423,0.0216 -0.2217,0.0868 -0.2531,0.2169 -0.032,0.1301 -0.032,0.2168 -0.032,0.3036 0,0.2602 0,0.4986 0.016,0.7154 0,0.1951 0.032,0.3036 0.079,0.3252 l 0,0.1301 -0.5698,0.2602 -0.095,-0.1301 c 0,-0.0215 -0.048,-0.1083 -0.1112,-0.3036 -0.079,-0.195 -0.174,-0.3903 -0.269,-0.6069 0,-0.0652 -0.016,-0.1301 -0.063,-0.1735 -0.032,-0.0652 -0.079,-0.0867 -0.1267,-0.0867 -0.048,-0.0652 -0.095,-0.1086 -0.1267,-0.1086 -0.048,0 -0.063,0.0434 -0.063,0.1086 -0.095,0.0215 -0.1426,0.0867 -0.1585,0.2168 -0.032,0.1301 -0.032,0.2166 -0.032,0.3033 0,0.2603 0.016,0.4771 0.048,0.6506 0.032,0.1735 0.048,0.2602 0.048,0.2602 l 0,0.1301 -0.57,0.3904 0,-0.1302 c 0,-0.0649 -0.048,-0.1734 -0.1267,-0.3035 -0.095,-0.1517 -0.2058,-0.347 -0.3484,-0.6072 0,0 -0.016,-0.0216 -0.063,-0.0649 -0.032,-0.0434 -0.079,-0.0652 -0.1264,-0.0652 -0.048,-0.0649 -0.095,-0.1083 -0.1267,-0.1083 -0.047,0 -0.063,0.0434 -0.063,0.1083 -0.095,0.0867 -0.1582,0.1734 -0.2055,0.3036 -0.032,0.1301 -0.032,0.1953 0.016,0.2168 0,0.2169 0.016,0.4122 0.047,0.6072 0.032,0.1953 0.048,0.282 0.048,0.3036 l 0,0.1301 -0.57,0.3903 0,-0.1301 c 0,-0.0218 -0.032,-0.1086 -0.079,-0.3036 -0.063,-0.195 -0.1582,-0.3903 -0.3008,-0.6072 0,0 -0.016,-0.0215 -0.063,-0.0649 -0.032,-0.0433 -0.079,-0.0652 -0.1267,-0.0652 -0.095,-0.1301 -0.1899,-0.1301 -0.2849,0 -0.095,0.0868 -0.1426,0.1735 -0.1584,0.3036 -0.032,0.1301 -0.032,0.1953 -0.032,0.2169 l 0.1902,1.0409 0.095,0.1301 -0.5701,0.3903 -0.095,-0.1301 c 0,-0.0218 -0.047,-0.1086 -0.1267,-0.3036 -0.095,-0.1735 -0.2058,-0.3254 -0.3484,-0.4771 0,-0.0652 -0.016,-0.1085 -0.047,-0.1085 -0.032,-0.0216 -0.048,-0.0216 -0.048,-0.0216 -0.095,-0.0652 -0.1584,-0.1086 -0.2058,-0.1086 -0.047,-0.0215 -0.079,-0.0215 -0.079,-0.0215 -0.079,0.0867 -0.1267,0.2169 -0.1108,0.3685 0,0.1735 0.016,0.2602 0.016,0.2821 0,0.2602 0.016,0.4986 0.047,0.7154 0.032,0.1953 0.048,0.3036 0.048,0.3254 l 0,0.1299 c 0,0.0652 -0.016,0.1301 -0.063,0.1734 -0.032,0.0652 -0.079,0.0868 -0.1267,0.0868 0.2373,0 0.459,0.0218 0.6806,0.0867 0.2217,0.0434 0.4592,0.1086 0.7441,0.1735 l 0,0 z m 27.4536,80.5323 c -0.2849,0 -0.5701,-0.0216 -0.8547,-0.0868 -0.2851,-0.0433 -0.57,-0.1082 -0.8552,-0.1734 -0.3325,-0.1951 -0.6333,-0.3685 -0.9181,-0.542 -0.2693,-0.1735 -0.5069,-0.3685 -0.6968,-0.6287 l -0.3798,-0.3904 c -2.2958,1.3442 -4.6548,2.2334 -7.0932,2.6887 -2.438,0.4337 -4.8923,0.4337 -7.346,-0.0434 -2.4542,-0.4552 -4.8608,-1.3878 -7.2198,-2.7754 l -0.4748,0.5205 c -0.1899,0.2602 -0.4116,0.4552 -0.665,0.6287 -0.2534,0.1735 -0.5701,0.3469 -0.9502,0.542 -0.095,0 -0.2055,0.0218 -0.3322,0.0652 -0.1267,0.0433 -0.2375,0.0649 -0.3328,0.0649 0,0.0218 -0.047,0.1519 -0.1105,0.3903 -0.063,0.2387 -0.1267,0.4989 -0.1744,0.7807 0,0.0218 0,0.0867 0.032,0.2168 0.016,0.1301 0.063,0.2169 0.1582,0.3036 0.095,0.0434 0.1902,0.0434 0.2692,-0.0218 0.095,-0.0649 0.1585,-0.0868 0.2058,-0.1083 0.1426,-0.1953 0.2535,-0.3903 0.3484,-0.542 0.079,-0.1519 0.1267,-0.2387 0.1267,-0.2387 l 0,-0.1301 0.5701,0.2602 0,0.1302 c 0,0 0.016,0.1085 0.031,0.3251 0.016,0.1953 0.016,0.4337 -0.031,0.7157 0.016,0.0868 0.063,0.2169 0.1423,0.3685 0.079,0.1735 0.1267,0.2603 0.1426,0.2821 l 0.2848,-0.2602 c 0.1426,-0.2169 0.2376,-0.4122 0.3008,-0.6072 0.048,-0.1953 0.079,-0.2821 0.079,-0.3036 l 0,-0.1301 c 0.095,0.0649 0.1902,0.1083 0.2851,0.1083 0.095,0.0218 0.19,0.0218 0.2849,0.0218 l -0.095,0.1301 c 0,0.0649 -0.016,0.2169 -0.047,0.4337 -0.032,0.2169 -0.048,0.4771 -0.048,0.7373 -0.016,0.0215 -0.016,0.0867 -0.016,0.2168 0,0.1299 0.079,0.2166 0.2058,0.3034 0.095,0.1085 0.1899,0.1085 0.2693,0.0218 0.063,-0.0868 0.1109,-0.1301 0.1109,-0.152 0.1425,-0.2817 0.2534,-0.5201 0.3483,-0.7154 0.079,-0.2169 0.1267,-0.3252 0.1267,-0.3252 l 0,-0.1301 c 0.047,0.065 0.1265,0.1083 0.2217,0.1301 0.095,0.0216 0.2055,0.065 0.3481,0.1302 l -0.095,0.1301 c 0,0.0215 -0.016,0.1516 -0.048,0.3903 -0.031,0.2384 -0.047,0.4986 -0.047,0.7804 0,0.0218 0,0.0867 0.032,0.2168 0.016,0.1301 0.063,0.2169 0.1582,0.3036 l 0.095,0 c 0.095,0.0434 0.19,0.0218 0.2691,-0.0867 0.063,-0.0868 0.1108,-0.1517 0.1108,-0.1735 0.1423,-0.2169 0.2375,-0.4119 0.3007,-0.6287 0.047,-0.1951 0.079,-0.347 0.079,-0.4119 l 0.095,-0.1301 0.57,0.2602 0,0.1301 c 0,0.0216 -0.016,0.1517 -0.047,0.3901 -0.032,0.2386 -0.048,0.4989 -0.048,0.7806 0,0 0.032,0.0652 0.079,0.152 0.047,0.0867 0.1106,0.1734 0.2056,0.2384 0.048,0 0.1111,-0.0216 0.1743,-0.065 0.063,-0.0433 0.1108,-0.0652 0.1108,-0.0652 l 0.3799,-1.0408 0,-0.1301 c 0.095,0 0.1902,0.0218 0.2851,0.0652 0.095,0.0433 0.19,0.0649 0.2849,0.0649 l 0,1.171 c 0,0.0218 0.016,0.0867 0.063,0.2168 0.032,0.1301 0.079,0.2169 0.1264,0.3036 l 0.095,0 c 0.095,0 0.1899,-0.0652 0.269,-0.1517 0.063,-0.0867 0.1105,-0.1734 0.1105,-0.2386 0.095,-0.1517 0.1902,-0.3036 0.2693,-0.4986 0.063,-0.1735 0.1109,-0.2603 0.1109,-0.2821 l 0,-0.2602 c 0.048,0.0652 0.1108,0.1086 0.206,0.1086 0.079,0.0215 0.1741,0.0215 0.2691,0.0215 l 0,1.171 c 0.048,0.0649 0.079,0.1516 0.1108,0.2602 0.032,0.1083 0.079,0.195 0.174,0.2602 l 0.095,0 c 0.095,0 0.1902,-0.0652 0.2693,-0.1519 0.063,-0.0867 0.1108,-0.1735 0.1108,-0.2384 0.095,-0.2169 0.1741,-0.4119 0.2217,-0.6072 0.047,-0.195 0.063,-0.2817 0.063,-0.3036 l 0,-0.1301 c 0.095,0 0.1902,0.0218 0.2852,0.0652 0.095,0.0434 0.1899,0.0649 0.2848,0.0649 l 0,0.1301 c 0,0 0,0.1086 0.016,0.3255 0,0.195 0.032,0.4334 0.079,0.7154 0,0 0,0.0649 0.016,0.1517 0,0.0867 0.032,0.1735 0.079,0.2387 l 0.095,0 c 0.1426,0 0.2376,-0.0652 0.3011,-0.152 0.063,-0.0867 0.079,-0.1735 0.079,-0.2384 0.095,-0.2168 0.174,-0.4119 0.2216,-0.6072 0.048,-0.195 0.063,-0.2817 0.063,-0.3036 l 0,-0.1301 0.5701,0 0,0.1301 c 0,0 0,0.1086 0.032,0.3255 0.016,0.195 0.063,0.4334 0.1582,0.7154 0,0.0649 0,0.1301 0.032,0.1951 0.015,0.0652 0.063,0.1301 0.1581,0.1953 l 0.095,0.1301 c 0.095,-0.0219 0.174,-0.0868 0.2216,-0.2169 0.047,-0.1301 0.063,-0.2168 0.063,-0.3036 0.047,-0.2168 0.095,-0.4337 0.1267,-0.6721 0.047,-0.2168 0.063,-0.3469 0.063,-0.3688 l 0.5697,0 c 0.048,0.0219 0.079,0.152 0.095,0.3904 0.016,0.2384 0.048,0.4986 0.095,0.7806 0,0 0.032,0.065 0.079,0.1517 0.048,0.0867 0.1109,0.1735 0.2058,0.2387 l 0.095,0 c 0.095,-0.0219 0.1743,-0.0868 0.2217,-0.1953 0.048,-0.1083 0.063,-0.1735 0.063,-0.1951 0.095,-0.282 0.1425,-0.5422 0.1743,-0.7806 0.016,-0.2384 0.016,-0.3685 0.016,-0.3904 l 0.57,0 c 0,0 0,0.1086 0.032,0.3255 0.016,0.195 0.063,0.4334 0.1581,0.7154 0,0.0649 0.016,0.1301 0.063,0.1951 0.032,0.0652 0.079,0.1301 0.1267,0.1953 l 0.19,0 c 0.095,-0.0219 0.174,-0.0868 0.2216,-0.1953 0.047,-0.1083 0.063,-0.1735 0.063,-0.1951 0.047,-0.282 0.079,-0.5204 0.079,-0.7154 0.016,-0.2169 0.016,-0.3255 0.016,-0.3255 l 0,-0.1301 0.665,0 0,0.1301 c 0,0 0.016,0.0868 0.063,0.2603 0.032,0.1734 0.079,0.3903 0.1267,0.6505 0,0 0.032,0.0434 0.079,0.1301 0.047,0.0649 0.1106,0.1083 0.2055,0.1301 l 0,0.1302 c 0.1429,-0.0219 0.2378,-0.0868 0.3011,-0.2169 0.047,-0.1301 0.079,-0.2168 0.079,-0.3036 l 0,-1.171 0.6651,0 0,0.1301 c 0,0 0.032,0.0868 0.079,0.2602 0.048,0.1735 0.1109,0.3904 0.2058,0.6506 l 0.1902,0.2602 0.19,0 c 0.095,-0.0218 0.174,-0.0867 0.2213,-0.1953 0.048,-0.1083 0.063,-0.1735 0.063,-0.195 0.048,-0.2818 0.048,-0.5205 0.032,-0.7155 -0.016,-0.2168 -0.032,-0.3254 -0.032,-0.3254 l 0,-0.1301 c 0.095,-0.0649 0.1744,-0.1083 0.2376,-0.1083 0.063,-0.0218 0.1423,-0.0218 0.2375,-0.0218 l 0.095,0.1301 c 0,0.0218 0.031,0.1086 0.079,0.3036 0.048,0.1953 0.1108,0.3903 0.2058,0.6072 l 0.1899,0.2602 0.1902,0 c 0.1423,-0.0868 0.2217,-0.1735 0.2531,-0.3036 0.032,-0.1301 0.032,-0.195 0.032,-0.2169 0.047,-0.2168 0.047,-0.4118 0.032,-0.6071 -0.016,-0.1951 -0.032,-0.2818 -0.032,-0.3036 l 0,-0.2602 c 0.095,0 0.1899,-0.0216 0.2851,-0.065 0.095,-0.0433 0.19,-0.0652 0.2849,-0.0652 l 0.095,0.1302 c 0,0 0.032,0.1085 0.079,0.3254 0.048,0.195 0.1108,0.4337 0.2061,0.7154 0,0 0,0.0219 0.031,0.0652 0.016,0.0434 0.063,0.0649 0.1585,0.0649 l 0.1896,0 c 0.095,-0.0215 0.1429,-0.0867 0.1743,-0.195 0.016,-0.1085 0.016,-0.1735 0.016,-0.1953 0.048,-0.3251 0.048,-0.6072 0.032,-0.824 -0.016,-0.2166 -0.032,-0.3467 -0.032,-0.3467 l 0,-0.1301 0.5701,-0.2602 0,0.1301 0.3798,1.0406 c 0,0 0.016,0.0218 0.063,0.0652 0.032,0.0434 0.079,0.0649 0.1264,0.0649 0.048,0.0652 0.095,0.1086 0.1426,0.1086 0.048,0.0215 0.095,0.0215 0.1426,0.0215 0.095,-0.0867 0.1423,-0.195 0.174,-0.3251 0.016,-0.152 0.016,-0.2602 0.016,-0.3254 0,-0.2818 -0.016,-0.5202 -0.048,-0.7155 -0.031,-0.2169 -0.047,-0.3251 -0.047,-0.3251 l 0,-0.1302 c 0.047,-0.0651 0.1108,-0.1301 0.2058,-0.1734 0.079,-0.0652 0.1743,-0.0868 0.2692,-0.0868 l 0,0.1301 c 0,0.0216 0.047,0.1083 0.1268,0.3036 0.095,0.1951 0.2055,0.3904 0.348,0.6072 0,0 0.016,0.0216 0.063,0.0649 0.032,0.0434 0.079,0.0652 0.1267,0.0652 0.048,0.0649 0.095,0.1083 0.1267,0.1083 0.048,0.0215 0.063,0.0215 0.063,0.0215 0.1426,-0.0867 0.2217,-0.195 0.2534,-0.3251 0.032,-0.1516 0.032,-0.2602 0.032,-0.3251 0,-0.2821 -0.032,-0.5205 -0.095,-0.7158 -0.048,-0.2168 -0.079,-0.3251 -0.095,-0.3251 l 0.5698,-0.3903 0,0.1301 0.3801,0.7806 c 0,0 0.016,0.0216 0.063,0.065 0.032,0.0433 0.079,0.0651 0.1267,0.0651 0.047,0.065 0.095,0.1083 0.1426,0.1083 0.048,0.0219 0.095,0.0219 0.1426,0.0219 0.095,-0.0868 0.1423,-0.1953 0.1741,-0.3255 0.016,-0.1516 0.016,-0.2602 0.016,-0.3251 -0.048,-0.2168 -0.095,-0.4122 -0.1267,-0.6072 -0.048,-0.195 -0.063,-0.2817 -0.063,-0.3036 l 0,-0.1301 0.4748,-0.3903 0.095,0.1301 c 0,0.0218 0.047,0.1086 0.1264,0.3036 0.095,0.1953 0.2058,0.3903 0.3484,0.6072 0,0 0.016,0 0.063,0.0215 0.032,0 0.079,0.0434 0.1267,0.1086 l 0.2849,0 c 0.095,-0.0868 0.1425,-0.195 0.1743,-0.3251 0.016,-0.152 0.016,-0.2603 0.016,-0.3255 l -0.1902,-0.6505 z m -14.1543,-36.6883 0,-0.2602 -0.5697,0 -0.5701,-0.3903 -5.3198,27.4513 c -0.4748,2.0599 -0.9181,3.6209 -1.2982,4.7052 -0.3799,1.0624 -0.6968,1.7997 -0.9185,2.1685 -0.2213,0.39 -0.3481,0.5635 -0.3481,0.542 l -0.1899,0.2602 1.52,0.6505 1.8048,0.3904 0,-0.2602 c 0,0 -0.032,-0.0868 -0.095,-0.2603 -0.047,-0.1953 -0.079,-0.5422 -0.095,-1.0408 0,-0.5639 0.047,-1.3879 0.1581,-2.4503 0.095,-1.0843 0.2693,-2.5152 0.5066,-4.3149 l 5.4147,-27.1911 z m 6.1747,-43.844 0.095,0.2602 c 0.016,0 0.048,0.1301 0.095,0.4122 0.063,0.3036 0.095,0.7588 0.095,1.4094 0,0.7806 -0.063,1.7129 -0.1902,2.7972 -0.1264,1.084 -0.2849,2.2765 -0.4748,3.5776 l -5.3198,27.1911 -0.095,0.2602 0.57,0.1301 0.4748,0.2602 5.5097,-27.4513 c 0.4751,-2.0599 0.9026,-3.6212 1.2509,-4.7052 0.364,-1.0624 0.6492,-1.7997 0.855,-2.1685 0.2058,-0.3903 0.3325,-0.5638 0.3639,-0.542 l 0.095,-0.2602 -1.7099,-0.7807 -1.6152,-0.3903 z m -27.1683,75.3284 c -0.1426,-0.1301 -0.3484,-0.3254 -0.6018,-0.5856 -0.2535,-0.2602 -0.5383,-0.5854 -0.8232,-0.9757 -0.3325,-0.3903 -0.665,-0.7806 -1.0134,-1.2143 -0.3643,-0.4337 -0.7441,-0.9324 -1.1716,-1.5177 -0.1899,-0.2821 -0.3801,-0.5857 -0.5541,-0.9108 -0.19,-0.3469 -0.3484,-0.6505 -0.4907,-0.9108 -0.1899,-0.3903 -0.396,-0.7806 -0.6015,-1.1707 -0.2061,-0.3903 -0.396,-0.7806 -0.5386,-1.171 -0.7756,-1.6262 -1.4882,-3.4477 -2.1532,-5.4425 -0.665,-2.0165 -1.2033,-4.185 -1.6467,-6.5267 -0.4748,-2.2984 -0.8231,-4.6837 -1.0607,-7.1555 -0.2372,-2.4937 -0.3639,-5.0089 -0.3639,-7.5459 0.047,-2.537 0.174,-5.074 0.3957,-7.5676 0.2216,-2.4937 0.5541,-4.9221 1.0289,-7.2638 0.1426,-0.5856 0.2693,-1.1492 0.3643,-1.6914 0.1108,-0.542 0.2058,-1.1058 0.3008,-1.6912 0.1902,-0.4555 0.3642,-0.9541 0.5068,-1.4746 0.1582,-0.5204 0.3007,-1.0624 0.4433,-1.648 0.19,-0.4553 0.3799,-0.9105 0.5539,-1.366 0.1902,-0.4553 0.3484,-0.9105 0.491,-1.3661 0.1426,-0.5204 0.3007,-0.9756 0.4909,-1.4093 0.1741,-0.4119 0.364,-0.8023 0.5539,-1.1926 0.2376,-0.4121 0.4275,-0.8022 0.6018,-1.2143 0.1741,-0.3904 0.3484,-0.7373 0.5383,-0.9976 l 1.1398,-2.0814 c 0.048,-0.1301 0.1109,-0.2603 0.2058,-0.3904 0.079,-0.1301 0.1744,-0.2602 0.2693,-0.3903 l 1.5197,-2.0815 c 0.3328,-0.2602 0.6335,-0.5204 0.9028,-0.7591 0.269,-0.2602 0.4748,-0.4768 0.6174,-0.6721 0.1423,-0.0649 0.2531,-0.1516 0.3484,-0.2384 0.079,-0.0867 0.1264,-0.1519 0.1264,-0.1519 0,0 -0.048,0.0652 -0.1264,0.1519 -0.095,0.1083 -0.2061,0.2384 -0.3484,0.3685 l -1.4253,1.5613 c -0.1423,0.1301 -0.3004,0.3252 -0.4748,0.542 -0.174,0.2384 -0.3325,0.4986 -0.4748,0.7589 -0.048,0.1301 -0.1111,0.2602 -0.206,0.3903 -0.079,0.1301 -0.1741,0.2602 -0.2691,0.3903 -0.095,0.0652 -0.1743,0.152 -0.2375,0.2818 -0.063,0.1301 -0.1426,0.3036 -0.2375,0.4989 l -1.0449,2.0815 -1.0448,2.2118 c -0.6809,1.6263 -1.3142,3.4475 -1.9316,5.4207 -0.6176,1.9951 -1.1401,4.1417 -1.5834,6.4185 -0.3798,2.2983 -0.6806,4.6619 -0.9023,7.1337 -0.2216,2.4721 -0.3325,4.9439 -0.3325,7.4375 0,2.537 0.1109,5.0307 0.3325,7.4591 0.2217,2.4285 0.5225,4.7704 0.9023,6.982 0.4751,2.3417 1.0134,4.5102 1.6308,6.5268 0.6018,1.9947 1.2668,3.8163 1.9791,5.4425 0.1585,0.3904 0.3166,0.7807 0.5066,1.1492 0.1902,0.3903 0.3325,0.7373 0.4433,1.0624 0.1899,0.3903 0.3643,0.7373 0.5224,1.0627 0.1585,0.3252 0.3325,0.6287 0.5225,0.889 0.4274,0.5853 0.7917,1.1058 1.1242,1.5828 0.3166,0.4553 0.6491,0.889 0.9657,1.2793 0.3008,0.3903 0.5701,0.7155 0.8076,0.9975 0.2532,0.2602 0.4275,0.4986 0.5225,0.6939 z m 39.8029,-30.4435 c 0,0.9105 -0.016,1.8431 -0.063,2.797 -0.048,0.9541 -0.1267,1.8864 -0.2216,2.7972 -0.1426,1.8864 -0.3484,3.6646 -0.6016,5.3558 -0.2534,1.6696 -0.5383,3.2309 -0.8234,4.6621 -0.1741,0.6721 -0.3325,1.3227 -0.4751,1.9732 -0.1264,0.6503 -0.2849,1.1925 -0.4748,1.6696 -0.1899,0.5854 -0.3643,1.1274 -0.5066,1.6262 -0.1584,0.4987 -0.301,0.9105 -0.4433,1.236 -0.3325,0.7806 -0.5701,1.366 -0.7285,1.7778 -0.1423,0.3904 -0.2217,0.6291 -0.2217,0.694 0,-0.1301 0.048,-0.3904 0.1744,-0.8241 0.1108,-0.4118 0.3007,-0.9972 0.5859,-1.7779 0.1423,-0.3254 0.2849,-0.7372 0.4272,-1.2359 0.1425,-0.4989 0.2851,-1.0408 0.4277,-1.6262 0.1423,-0.5204 0.2849,-1.1061 0.4116,-1.7348 0.1426,-0.6072 0.2531,-1.2577 0.3481,-1.908 0.2852,-1.4312 0.5386,-2.9925 0.7602,-4.6621 0.2217,-1.6478 0.3799,-3.4042 0.4748,-5.2257 0.095,-0.9757 0.1426,-1.9298 0.1741,-2.8406 0.032,-0.9323 0.063,-1.8431 0.1111,-2.7536 0,-1.0409 0.016,-2.0599 0.047,-3.0359 0.032,-0.9757 0.048,-1.908 0.048,-2.8188 0,-2.0165 -0.063,-3.9897 -0.1744,-5.9411 -0.1108,-1.9298 -0.2534,-3.8163 -0.3957,-5.6378 -0.2216,-1.7779 -0.4592,-3.4693 -0.6809,-5.1171 -0.2375,-1.6265 -0.5065,-3.1442 -0.839,-4.5102 -0.048,-0.3904 -0.1108,-0.7591 -0.2058,-1.0843 -0.079,-0.3469 -0.1741,-0.6721 -0.269,-0.9975 l -0.5701,-1.6911 c -0.1425,-0.5857 -0.3007,-1.1061 -0.4592,-1.5829 -0.1582,-0.4555 -0.3007,-0.8892 -0.396,-1.2796 -0.3322,-0.7154 -0.5856,-1.3008 -0.7755,-1.7129 -0.1741,-0.4119 -0.269,-0.6288 -0.269,-0.6288 l 1.1398,2.3417 c 0.1108,0.3254 0.2531,0.7158 0.4592,1.171 0.1896,0.4553 0.3957,0.9757 0.5856,1.5613 l 0.5701,1.6912 c 0.1423,0.2602 0.269,0.5856 0.3639,0.9326 0.1109,0.3467 0.2058,0.6936 0.3008,1.019 0.3328,1.431 0.6494,2.9923 0.9343,4.6404 0.2849,1.6477 0.5383,3.3607 0.7758,5.1171 0.19,1.8864 0.3167,3.7947 0.3957,5.7461 0.079,1.9516 0.1426,3.9464 0.1744,5.9629 0,0.9757 -0.016,1.9299 -0.048,2.884 -0.032,0.9541 -0.047,1.9298 -0.047,2.9707 z m -21.564,-5.8547 0.2849,-0.7806 -14.1542,-5.0738 c 0,0.2603 -0.016,0.5205 -0.047,0.7804 -0.032,0.2602 -0.048,0.5205 -0.048,0.7807 l 13.9643,4.9439 0,-0.6506 z m 5.2246,0.6506 c -0.016,-0.8674 -0.2373,-1.5829 -0.6648,-2.1249 -0.4277,-0.5638 -0.934,-0.8458 -1.5199,-0.8674 -0.6809,0.0216 -1.2192,0.3036 -1.6308,0.8674 -0.4274,0.542 -0.6332,1.2575 -0.6491,2.1249 0.016,0.8674 0.2217,1.5829 0.6491,2.1248 0.4116,0.5638 0.9499,0.8459 1.6308,0.8674 0.5859,-0.0215 1.0922,-0.3036 1.5199,-0.8674 0.4275,-0.5419 0.6492,-1.2574 0.6648,-2.1248 z m 0.57,1.3011 -0.1899,0.7804 13.0144,4.5535 c 0.047,-0.2602 0.079,-0.4986 0.079,-0.7154 0.016,-0.2169 0.016,-0.4553 0.016,-0.7155 l -12.8245,-4.6837 -0.095,0.7807 z m -4.2746,-1.3011 c 0.016,-0.542 0.1584,-0.9757 0.4433,-1.3011 0.2849,-0.347 0.6333,-0.5205 1.0766,-0.5205 0.3957,0 0.7123,0.1735 0.9499,0.5205 0.2534,0.3254 0.3801,0.7591 0.3801,1.3011 0,0.542 -0.1267,0.9975 -0.3801,1.366 -0.2376,0.3688 -0.5542,0.5638 -0.9499,0.5854 -0.4433,-0.0216 -0.7917,-0.2166 -1.0766,-0.5854 -0.2849,-0.3685 -0.4275,-0.824 -0.4433,-1.366 z m -13.9644,36.1681 -2.4698,-3.513 c 0.1899,-0.195 0.3801,-0.3251 0.5542,-0.4119 0.1899,-0.0649 0.3484,-0.1083 0.4907,-0.1083 0.5383,0.0216 0.9816,0.2384 1.3459,0.6937 0.348,0.4555 0.5383,1.0409 0.5541,1.7782 0,0.2602 -0.048,0.5204 -0.1267,0.7806 -0.095,0.2602 -0.2058,0.5205 -0.3484,0.7807 z m 0,-71.2953 c 0.1426,0.1953 0.2535,0.4337 0.3484,0.7154 0.079,0.2603 0.1267,0.4989 0.1267,0.7158 -0.016,0.7373 -0.2061,1.3442 -0.5541,1.8431 -0.3643,0.477 -0.8076,0.7373 -1.3459,0.7588 -0.1423,0 -0.3008,-0.0649 -0.4907,-0.1735 -0.1741,-0.0867 -0.3643,-0.2168 -0.5542,-0.3469 l 2.4698,-3.5127 z m -1.4249,-1.0409 c 0.1899,0 0.396,0.0652 0.6018,0.1519 0.2055,0.1083 0.3957,0.2384 0.5383,0.3685 l -2.4699,3.5127 c -0.1426,-0.2602 -0.2375,-0.5201 -0.301,-0.7804 -0.047,-0.2602 -0.079,-0.5204 -0.079,-0.7806 0.016,-0.6724 0.1899,-1.2577 0.5383,-1.7348 0.3325,-0.4771 0.7282,-0.7155 1.1716,-0.7373 z m 30.9685,72.3362 c -0.1426,-0.2602 -0.2376,-0.5205 -0.3008,-0.7807 -0.048,-0.2602 -0.079,-0.5204 -0.079,-0.7806 0.016,-0.7373 0.1744,-1.3227 0.5066,-1.7782 0.3169,-0.4553 0.7126,-0.6721 1.2036,-0.6937 0.2372,0 0.4433,0.0434 0.633,0.1083 0.1743,0.0868 0.3166,0.2169 0.4118,0.4119 l -2.3748,3.513 z m 1.33,-72.3362 c 0.4907,0.0218 0.9181,0.2602 1.2665,0.7373 0.3481,0.4771 0.5224,1.0624 0.5383,1.7348 0,0.2602 -0.048,0.5204 -0.1108,0.7806 -0.079,0.2603 -0.1744,0.5202 -0.2693,0.7804 l -2.4699,-3.5127 c 0.1426,-0.1301 0.3008,-0.2602 0.4907,-0.3685 0.1744,-0.0867 0.3643,-0.1519 0.5545,-0.1519 z m -1.33,1.0409 2.3748,3.5127 c -0.095,0.1301 -0.2375,0.2602 -0.4118,0.3469 -0.1897,0.1086 -0.3958,0.1735 -0.633,0.1735 -0.491,-0.0215 -0.8867,-0.2818 -1.2036,-0.7588 -0.3322,-0.4989 -0.4907,-1.1058 -0.5066,-1.8431 0,-0.2169 0.032,-0.4555 0.079,-0.7158 0.063,-0.2817 0.1582,-0.5201 0.3008,-0.7154 z m -30.9685,72.0757 c -0.4434,-0.0216 -0.8391,-0.2384 -1.1716,-0.694 -0.3484,-0.4334 -0.5224,-0.9756 -0.5383,-1.6477 0,-0.3252 0.032,-0.6072 0.079,-0.8674 0.063,-0.2384 0.1584,-0.4337 0.301,-0.5639 l 2.4699,3.2525 c -0.1426,0.1953 -0.3328,0.3254 -0.5383,0.4122 -0.2058,0.0649 -0.4119,0.1083 -0.6018,0.1083 z m 32.2985,0 c -0.1902,0 -0.3801,-0.0434 -0.5545,-0.1083 -0.1899,-0.0868 -0.3481,-0.2169 -0.4907,-0.4122 l 2.4699,-3.2525 c 0.095,0.1302 0.1899,0.3255 0.2693,0.5639 0.063,0.2602 0.1108,0.5422 0.1108,0.8674 -0.016,0.6721 -0.1902,1.2143 -0.5383,1.6477 -0.3484,0.4556 -0.7758,0.6724 -1.2665,0.694 z m -14.7243,-36.9485 c 0,-0.2169 -0.063,-0.4119 -0.1902,-0.6072 -0.1264,-0.195 -0.2849,-0.2818 -0.4748,-0.3036 -0.2376,0.0218 -0.4275,0.1086 -0.5542,0.3036 -0.1426,0.1953 -0.2061,0.3903 -0.2061,0.6072 0,0.2602 0.064,0.4986 0.2061,0.7155 0.1267,0.1953 0.3166,0.3035 0.5542,0.3254 0.1899,-0.0219 0.3484,-0.1301 0.4748,-0.3254 0.1267,-0.2169 0.1902,-0.4553 0.1902,-0.7155 z m 14.0593,-39.941 c 0,-0.0649 0.016,-0.1517 0.047,-0.2818 0.032,-0.1083 0.048,-0.2384 0.048,-0.3685 0.016,-0.0218 0.016,-0.0867 0.032,-0.2168 0,-0.1301 -0.032,-0.2169 -0.1264,-0.3036 -0.1426,-0.0434 -0.2534,-0.0434 -0.3484,0.0215 -0.079,0.0652 -0.1267,0.0868 -0.1267,0.1086 -0.095,0.195 -0.2058,0.3903 -0.3008,0.542 -0.1108,0.1519 -0.1584,0.2384 -0.1743,0.2384 l -0.095,0.2602 1.0452,0 z m -31.0635,0 1.0451,0 c 0,0 -0.048,-0.0868 -0.1428,-0.2384 -0.095,-0.1517 -0.2373,-0.347 -0.4272,-0.542 0,0 0,-0.0218 -0.016,-0.0652 0,-0.0434 -0.031,-0.0649 -0.079,-0.0649 -0.048,-0.0652 -0.1111,-0.0652 -0.1743,-0.0434 -0.063,0.0216 -0.1108,0.0434 -0.1108,0.0434 -0.095,0.0649 -0.1423,0.1735 -0.1741,0.3251 -0.016,0.1301 -0.016,0.2387 -0.016,0.3252 0,0.0652 0.016,0.1085 0.048,0.1301 0.031,0.0218 0.047,0.0652 0.047,0.1301 z m 92.1223,-32.5366 c 7.1972,1.2974 5.6775,0.6658 11.2329,7.5089 l 6.6438,-3.1731 c -0.5873,-2.9381 -4.3682,-7.3834 -7.1192,-7.9999 -3.1635,-0.7101 -8.9722,0.5624 -10.7575,3.6641 z m -34.3837,4.3358 6.6646,3.1666 c 5.0632,-3.6317 2.1225,-4.4257 11.1872,-7.9106 -1.8547,-2.052 -7.2953,-3.8296 -10.3788,-3.3565 -2.9208,0.4481 -6.8649,5.1429 -7.473,8.1005 z m 3.9008,-24.5832 c -0.1548,4.1539 1.4559,7.0586 2.9438,10.4347 3.4721,0.1417 5.8912,-3.6046 9.8124,-0.8623 2.4295,1.6965 3.8925,4.0373 6.9253,6.2838 -0.5187,-4.8039 -4.4229,-12.7134 -6.3907,-15.5242 -1.5579,-2.2264 -2.6663,-4.3373 -6.4298,-3.8183 -2.6754,0.3685 -5.1038,1.8924 -6.861,3.4863 z m 24.796,15.842 c 3.9263,-1.1664 4.8666,-5.7053 6.9364,-6.2793 l 9.8167,0.9003 c 2.5342,-5.0723 1.6787,-2.4596 2.9333,-10.4683 -1.6895,-1.6847 -3.9765,-2.9322 -6.5296,-3.4166 -4.0139,-0.7617 -4.9244,1.2211 -6.5577,3.4988 -2.1932,3.0585 -6.0463,10.6052 -6.5991,15.7651 z m -1.4904,123.5466 7.126,9.2639 -6.9069,6e-4 -0.2191,-9.2645 z m -1.8584,0.1012 0.038,9.2002 -7.2482,0.0958 7.2105,-9.296 z m 2.5662,-2.8958 17.2939,-21.3804 7.1328,33.3032 -14.4142,0.2197 -10.0125,-12.1425 z m -27.9913,11.9746 7.335,-33.3394 17.0994,21.3648 -9.4527,12.0438 -14.9817,-0.0692 z m 27.3093,-14.623 -9e-4,-40.2565 15.8726,19.8694 -15.8717,20.3871 z m -1.9293,-40.2738 0.026,40.3035 -16.0296,-20.1835 16.0038,-20.12 z m 12.1292,-14.6923 6.8156,32.2716 -16.5007,-20.1898 9.6851,-12.0818 z m -29.4202,32.309 6.8003,-32.3144 9.4997,11.776 -16.3,20.5384 z m 19.1599,-42.0307 8.0765,0.0371 1.3989,6.317 -9.4796,12.521 0,-18.8751 z m -1.8272,18.8725 -9.447,-12.1501 1.1528,-6.5926 8.2435,-0.1204 0.051,18.8631 z m 1.5622,-30.1892 0.1068,-19.2263 1.3587,-0.0255 4.3979,19.2053 -5.8634,0.0465 z m -7.3973,0.0153 4.42,-19.2773 1.4145,0.026 -0.2438,19.1727 -5.5907,0.0786 z m -8.2089,-19.266 3.5569,0.0536 -31.2338,146.1155 8.447,0.0275 4.8072,-22.7087 28.2303,0.0281 -0.047,18.5873 -10.1344,0.0156 0.1372,4.0598 22.2525,0.0346 0.06,-4.0944 -10.2024,-0.0161 -0.044,-18.6154 28.213,0.0524 4.9272,22.6412 8.3933,-0.019 -31.242,-146.1305 3.5583,-0.0136 -0.033,-9.7027 -29.6461,-0.008 -6e-4,9.6925 z m 106.4704,60.7629 c -0.6661,-1.4309 -1.512,-2.7765 -2.5378,-4.0365 -1.0259,-1.2388 -2.1237,-2.3706 -3.2936,-3.3957 -1.1701,-1.0252 -2.3037,-1.9221 -3.4016,-2.6909 -1.0978,-0.769 -2.0698,-1.3884 -2.8797,-1.8581 -0.8101,-0.4912 -1.3861,-0.8116 -1.7098,-0.9612 l -6.8032,-3.3316 c -1.044,-0.4484 -2.0517,-0.5125 -3.0058,-0.1922 -0.9539,0.3203 -1.7096,1.025 -2.2856,2.1144 l -0.432,-0.3847 0.108,0 c 0,0 -0.018,0 -0.072,-0.0212 -0.036,0 -0.09,-0.0428 -0.1437,-0.1069 l 0.1077,0.1281 -0.54,-0.5125 c -0.1437,-0.0853 -0.3419,-0.1494 -0.5939,-0.1922 -0.2338,-0.0428 -0.468,-0.0428 -0.684,0 -0.2157,0.0428 -0.36,0.1497 -0.4496,0.3204 l -0.2162,0.6409 -1.0798,-0.2566 c -2.8258,-0.7259 -5.1295,-2.0928 -6.9114,-4.0578 -1.7816,-1.9647 -2.8976,-4.7625 -3.3474,-8.3718 -0.216,-2.1997 -0.072,-4.3356 0.4138,-6.3644 0.4862,-2.029 1.3139,-3.8015 2.4478,-5.2965 1.152,-1.5165 2.6098,-2.5843 4.3735,-3.2037 0.288,-0.1707 0.612,-0.2775 0.972,-0.3203 0.36,-0.0428 0.6837,-0.1494 0.9717,-0.3203 l 0.648,0 c 0.1259,-0.0641 0.2699,-0.1069 0.4499,-0.1069 0.18,-0.0213 0.36,-0.0213 0.5219,-0.0213 l 0.648,0 c 1.3858,-0.064 2.5197,-0.1068 3.3658,-0.1493 0.8459,-0.0429 1.4936,-0.0641 1.9616,-0.0857 0.4501,0 0.792,-0.0212 1.0259,-0.0212 0.216,0 0.4138,0 0.5578,0 l 3.0237,0 c 0.9717,0 2.0336,0.0212 3.2037,0.0428 1.1878,0.0212 2.3758,0.0425 3.5816,0.0853 1.2059,0.0213 2.3216,0.0641 3.3656,0.0853 1.0437,0.0216 1.9077,0.0428 2.5914,0.0428 l 1.404,0 0,1.4097 c 0.018,0.2563 0.18,0.4697 0.468,0.6406 0.288,0.171 0.5939,0.2563 0.936,0.2563 0.2157,0 0.4317,-0.0428 0.6299,-0.1069 0.1797,-0.064 0.3418,-0.1494 0.4498,-0.2775 l 0.648,-0.3844 c 0.054,-0.1281 0.09,-0.2778 0.09,-0.4487 0.018,-0.1706 0.018,-0.3203 0.018,-0.4484 0,-0.3203 0.018,-0.6835 0.054,-1.0678 0.036,-0.3844 0.054,-0.7903 0.054,-1.2388 l 0,-4.8693 c 0,-0.4485 -0.018,-0.8544 -0.054,-1.2388 -0.036,-0.3631 -0.054,-0.6834 -0.054,-0.9397 0,-0.1281 0,-0.2562 -0.018,-0.4056 0,-0.1281 -0.036,-0.2991 -0.09,-0.4912 -0.054,-0.1282 -0.1261,-0.235 -0.2341,-0.2991 -0.108,-0.0853 -0.2517,-0.1494 -0.4139,-0.2137 -0.072,-0.1282 -0.1978,-0.2563 -0.4138,-0.3629 -0.2163,-0.0856 -0.432,-0.1496 -0.6659,-0.1496 -0.3421,0 -0.648,0.1068 -0.936,0.3203 -0.288,0.1922 -0.4498,0.4272 -0.468,0.705 l 0,0.8968 -1.296,0 c -0.6837,0 -1.5477,-0.0212 -2.5914,-0.0428 -1.044,-0.0212 -2.1779,-0.064 -3.3837,-0.0853 -1.2059,-0.0428 -2.4117,-0.0641 -3.5995,-0.0853 -1.188,-0.0216 -2.2855,-0.0428 -3.2757,-0.0428 l -3.0237,0 -7.4511,0.2562 -0.5398,0 c -0.216,0 -0.432,0 -0.6661,0.0213 -0.216,0 -0.468,0.0428 -0.7379,0.1069 -0.054,0 -0.1258,0.0215 -0.2338,0.064 -0.09,0.0428 -0.1982,0.0641 -0.3059,0.0641 l -3.6717,0.769 c -2.1957,0.79 -4.1216,1.986 -5.7951,3.6091 -1.6739,1.6019 -3.06,3.5028 -4.1579,5.7025 -1.0797,2.1784 -1.8536,4.549 -2.3037,7.0693 -0.4499,2.52 -0.5397,5.0828 -0.2699,7.7096 0.1982,2.9475 0.8102,5.6597 1.8718,8.1159 1.044,2.456 2.448,4.5916 4.1935,6.3856 1.7459,1.8153 3.7435,3.2035 6.0293,4.2075 0.72,0.3628 1.4037,0.6406 2.0699,0.8328 0.6658,0.1709 1.2775,0.3203 1.8178,0.4485 0.054,-0.0641 0.09,-0.1282 0.09,-0.171 0.018,-0.064 0.018,-0.0853 0.018,-0.0853 -0.54,-0.1281 -1.1341,-0.3203 -1.764,-0.5553 -0.6298,-0.2563 -1.3138,-0.5338 -2.0157,-0.8544 -2.3037,-0.9609 -4.3016,-2.3278 -5.9933,-4.1218 -1.6738,-1.7941 -3.0237,-3.9082 -4.0314,-6.3216 -1.008,-2.4134 -1.6739,-5.0403 -1.9619,-7.8809 -0.1621,-2.5628 -0.018,-5.0615 0.4139,-7.5174 0.4501,-2.4775 1.188,-4.7841 2.2139,-6.9412 1.0258,-2.1357 2.3397,-4.015 3.9415,-5.6169 1.6019,-1.6018 3.4736,-2.819 5.6333,-3.6306 0.8819,-0.2562 1.5837,-0.4272 2.0696,-0.5553 0.4861,-0.1069 0.8458,-0.1922 1.0978,-0.235 0.2342,-0.0428 0.4502,-0.0641 0.612,-0.1069 l 1.836,0 c 0.108,0 0.216,0 0.3238,-0.0212 0.108,0 0.216,-0.0428 0.324,-0.1069 1.4757,-0.064 2.6637,-0.1066 3.5458,-0.1281 0.8997,-0.0213 1.5837,-0.0425 2.0696,-0.0425 0.4859,0 0.8459,0.0212 1.0979,0.0212 0.252,0.0213 0.4501,0.0213 0.6298,0.0213 l 3.0237,0 c 0.9902,0 2.0877,0 3.2757,0.0215 1.1878,0 2.3936,0.0213 3.5995,0.0426 1.2058,0.0215 2.3397,0.0215 3.3837,0.0428 1.0437,0.0212 1.9077,0.0212 2.5914,0.0212 l 1.296,0.1281 0,0.1282 -1.296,0 c -0.6837,-0.0426 -1.5477,-0.0641 -2.5914,-0.0854 -1.044,0 -2.1779,-0.0212 -3.3837,-0.0212 -1.2059,-0.0216 -2.4117,-0.0216 -3.5995,-0.0216 -1.188,0 -2.2855,0 -3.2757,0 l -3.0237,0 -7.3431,0.1282 -0.6478,0 c -0.1621,0 -0.3421,0 -0.5581,0.0215 -0.216,0 -0.468,0.0425 -0.7379,0.1066 l -0.54,0 -3.6714,1.0253 c -2.1058,0.7475 -3.9594,1.9222 -5.5791,3.4812 -1.6022,1.5591 -2.9339,3.4172 -3.9957,5.5315 -1.0438,2.1357 -1.7819,4.421 -2.2139,6.8556 -0.4499,2.456 -0.54,4.9334 -0.3059,7.4534 0.288,2.8194 0.9539,5.4247 1.9438,7.7953 1.008,2.3494 2.3397,4.3997 3.9957,6.1509 1.6557,1.7513 3.5994,3.1181 5.8311,4.1219 0.756,0.3203 1.4579,0.5981 2.1059,0.8543 0.6477,0.235 1.2418,0.4272 1.7818,0.5553 0.054,-0.064 0.09,-0.1068 0.09,-0.1281 0.018,-0.0212 0.018,-0.064 0.018,-0.1281 -0.5397,-0.1281 -1.1338,-0.3203 -1.7815,-0.5553 -0.648,-0.2563 -1.3502,-0.5341 -2.1059,-0.8544 -2.2317,-1.0037 -4.1757,-2.3493 -5.8133,-4.079 -1.62,-1.73 -2.9338,-3.7375 -3.9237,-6.0656 -0.9896,-2.3278 -1.6376,-4.8906 -1.9256,-7.6672 -0.1618,-2.4987 -0.018,-4.9334 0.396,-7.3468 0.4318,-2.4131 1.1518,-4.6772 2.1416,-6.7915 1.008,-2.0928 2.2859,-3.9297 3.8514,-5.4672 1.548,-1.559 3.3838,-2.7125 5.4896,-3.46 0.8819,-0.2562 1.5659,-0.4484 2.0339,-0.5765 0.468,-0.1282 0.8277,-0.2138 1.0437,-0.2563 0.2341,-0.0428 0.432,-0.064 0.5938,-0.064 0.108,-0.0641 0.216,-0.1069 0.3062,-0.1069 0.108,-0.0213 0.18,-0.0213 0.2338,-0.0213 0.2699,-0.064 0.5219,-0.1068 0.7379,-0.1068 0.216,-0.0213 0.396,-0.0213 0.5581,-0.0213 l 0.6478,0 c 1.4757,-0.0643 2.6637,-0.1069 3.5458,-0.1497 0.8997,-0.0428 1.5837,-0.064 2.0696,-0.0853 0.4859,0 0.8459,-0.0215 1.0979,-0.0215 0.252,0 0.4501,0 0.6298,0 l 3.0237,0 c 0.9902,0 2.0877,0.0215 3.2757,0.0428 1.1878,0.0212 2.3936,0.0428 3.5995,0.0853 1.2058,0.0215 2.3397,0.0641 3.3837,0.0856 1.0437,0.0213 1.9077,0.0428 2.5914,0.0428 l 1.296,0 0,0.2563 -1.296,0 c -0.6837,0 -1.5477,-0.0216 -2.5914,-0.0428 -1.044,-0.0213 -2.1779,-0.0641 -3.3837,-0.0854 -1.2059,-0.0428 -2.4117,-0.064 -3.5995,-0.0856 -1.188,-0.0212 -2.2855,-0.0425 -3.2757,-0.0425 l -3.0237,0 -7.3431,0.2563 -0.5398,0 c -0.216,0 -0.432,0 -0.6661,0.0212 -0.216,0 -0.468,0.0428 -0.7379,0.1069 -0.054,0 -0.1258,0 -0.2338,0.0212 -0.09,0 -0.1982,0.0428 -0.3062,0.1069 l -3.5634,0.8969 c -2.0338,0.7475 -3.8157,1.9009 -5.3813,3.4384 -1.548,1.5378 -2.8255,3.3319 -3.8517,5.4247 -1.0077,2.0718 -1.7277,4.2928 -2.1597,6.6849 -0.4139,2.3919 -0.504,4.8053 -0.2699,7.2612 0.4859,4.25 1.6739,7.8594 3.5816,10.8494 1.9077,2.9687 4.5173,5.2112 7.865,6.7062 0.7557,0.3203 1.4579,0.5981 2.1059,0.8543 0.6477,0.235 1.2418,0.4272 1.7815,0.5553 l -0.8637,2.3066 c -0.09,0.2775 0,0.5978 0.2699,0.9397 0.2701,0.3631 0.576,0.6406 0.9178,0.8543 0.1803,0.0641 0.396,0.1282 0.6662,0.1494 0.2698,0.0428 0.5218,0.0428 0.7378,-0.0212 -0.054,1.0462 0.1619,2.0503 0.6299,2.99 0.4499,0.9396 1.152,1.6656 2.0696,2.1356 0.018,0.0212 0.3421,0.1709 0.972,0.4697 0.6298,0.3206 1.404,0.705 2.3397,1.1534 0.936,0.4484 1.8717,0.9184 2.8256,1.3669 0.9538,0.4484 1.7818,0.8328 2.4658,1.1531 0.6837,0.299 1.0979,0.4487 1.2237,0.47 1.2419,0.7687 2.3219,1.5162 3.2579,2.2637 0.9357,0.7475 1.7096,1.5166 2.3576,2.3494 0.864,1.2175 1.5477,2.52 2.0157,3.9297 0.468,1.3881 0.7379,2.8618 0.792,4.3996 0,2.3706 -0.3421,4.4634 -1.044,6.2787 -0.6837,1.8156 -1.7099,3.3959 -3.0594,4.7416 -1.3499,1.2172 -2.9339,2.1784 -4.7696,2.8403 -1.8357,0.6621 -3.9234,1.0037 -6.2453,1.0037 -2.9157,0 -5.6152,-0.5765 -8.0989,-1.7084 -2.484,-1.1534 -4.7517,-2.8406 -6.8034,-5.0831 -2.0517,-2.3066 -3.7794,-5.1044 -5.1653,-8.3719 -1.3858,-3.289 -2.4477,-7.0693 -3.1496,-11.3621 l -2.6997,0 0,32.292 2.6997,0 c 0.216,-0.9612 0.4859,-1.794 0.8099,-2.5415 0.324,-0.7262 0.7021,-1.3669 1.1339,-1.9434 0.432,-0.5766 0.864,-1.0038 1.3317,-1.26 0.4501,-0.2778 0.936,-0.406 1.476,-0.406 0.4317,0 0.972,0.1282 1.6197,0.3844 l 4.2114,2.0503 c 1.2419,0.6406 2.4299,1.2175 3.5637,1.6872 1.1339,0.4912 2.2136,0.8756 3.2397,1.1319 1.0798,0.3206 2.1958,0.5553 3.3293,0.6834 1.152,0.1497 2.34,0.2137 3.5819,0.2137 3.6714,0 7.0191,-0.6406 10.0607,-1.9221 3.0416,-1.2816 5.7595,-3.2035 8.189,-5.7666 4.7515,-5.2537 7.1272,-11.9171 7.1272,-19.9899 0,-2.4349 -0.216,-4.6774 -0.6299,-6.749 -0.432,-2.0503 -1.044,-3.9509 -1.8536,-5.6809 z m -8.7471,33.8295 -1.7277,1.4097 -1.512,1.1531 -1.512,0.8972 c -0.2157,0.1281 -0.4317,0.2347 -0.6299,0.2988 -0.1978,0.0856 -0.3957,0.1496 -0.5578,0.2137 -0.756,0.3844 -1.3499,0.6619 -1.7456,0.8543 -0.4142,0.1922 -0.6299,0.2988 -0.6299,0.2988 0,0 0.2157,-0.1281 0.6299,-0.3628 0.3957,-0.2137 0.9896,-0.5341 1.7456,-0.9184 l 1.08,-0.641 1.4037,-1.025 1.62,-1.1531 1.6197,-1.4097 c 1.0979,-0.9612 2.1957,-2.1356 3.2936,-3.5453 1.0981,-1.3881 2.0877,-2.9899 2.9695,-4.784 0.864,-1.8153 1.5299,-3.7587 1.9979,-5.8518 0.468,-2.1144 0.7021,-4.25 0.7021,-6.4497 0,-1.0894 -0.036,-2.2 -0.108,-3.3103 -0.072,-1.1106 -0.2162,-2.2 -0.4322,-3.225 -0.216,-1.0253 -0.4859,-2.0075 -0.8278,-2.9687 -0.324,-0.9397 -0.7378,-1.8366 -1.224,-2.6697 -0.5397,-0.8328 -1.0978,-1.6015 -1.6917,-2.3278 -0.576,-0.7047 -1.1698,-1.3881 -1.764,-2.029 -0.5397,-0.7047 -1.1157,-1.3453 -1.7274,-1.9219 -0.5941,-0.5769 -1.1701,-1.0894 -1.7277,-1.5378 -1.1342,-1.0253 -2.1782,-1.9222 -3.1139,-2.6909 -0.936,-0.7691 -1.728,-1.4097 -2.3936,-1.9222 -0.324,-0.1922 -0.5941,-0.3844 -0.828,-0.5553 -0.216,-0.1922 -0.4141,-0.3419 -0.576,-0.47 l 1.512,0.8972 c 0.6656,0.4484 1.4758,1.025 2.4475,1.7512 0.972,0.7047 2.0338,1.5803 3.1677,2.6056 0.5939,0.4485 1.2059,0.9397 1.836,1.4522 0.6299,0.5341 1.2416,1.1106 1.8357,1.7513 0.6117,0.6406 1.2059,1.324 1.8176,2.0503 0.5941,0.7262 1.152,1.5377 1.6378,2.4346 0.5942,0.8969 1.08,1.8369 1.476,2.8191 0.3779,0.9825 0.684,2.0503 0.8998,3.2037 0.216,1.025 0.3781,2.1144 0.4858,3.225 0.108,1.1319 0.1622,2.285 0.1622,3.4384 -0.054,2.3278 -0.3419,4.5703 -0.8638,6.7275 -0.5221,2.1568 -1.2421,4.1431 -2.16,5.9584 -0.8818,1.8581 -1.8898,3.4812 -3.0415,4.8909 -1.1517,1.3881 -2.3397,2.5415 -3.5456,3.4384 l 0,0 z m -22.4615,-42.2869 c -0.5397,-0.1922 -1.1335,-0.3844 -1.7997,-0.6194 -0.6477,-0.2135 -1.3858,-0.4697 -2.1957,-0.79 -3.1136,-1.6447 -5.5613,-3.8016 -7.3253,-6.514 -1.7637,-2.691 -2.8794,-6.0653 -3.3655,-10.1447 -0.2339,-2.3278 -0.1619,-4.6343 0.2341,-6.8984 0.3957,-2.285 1.0797,-4.3993 2.0339,-6.3856 0.9717,-1.9862 2.1775,-3.6947 3.6532,-5.1471 1.476,-1.4522 3.1678,-2.5413 5.0936,-3.2247 0.8099,-0.2566 1.4397,-0.4272 1.8717,-0.5553 0.4499,-0.1069 0.7557,-0.1922 0.9717,-0.235 0.1982,-0.0213 0.3782,-0.0641 0.504,-0.1069 l 0.54,0 c 0.2699,-0.064 0.504,-0.1069 0.684,-0.1069 0.1979,-0.0212 0.4139,-0.0212 0.612,-0.0212 l 0.6478,0 c 1.44,-0.0641 2.6098,-0.1069 3.4917,-0.1494 0.8818,-0.0428 1.5477,-0.0641 2.0338,-0.0856 0.4678,0 0.8459,-0.0213 1.0798,-0.0213 0.252,0 0.4501,0 0.6298,0 l 3.0237,0 c 0.9902,0 2.0877,0.0213 3.2757,0.0428 1.1878,0.0213 2.3936,0.0426 3.5995,0.0854 1.2058,0.0428 2.3397,0.064 3.3837,0.0853 1.0437,0.0215 1.9077,0.0428 2.5914,0.0428 l 1.296,0 0,0.3844 -1.296,0 c -0.6837,0 -1.5477,-0.0213 -2.5914,-0.0426 -1.044,-0.0215 -2.1779,-0.064 -3.3837,-0.0856 -1.2059,-0.0425 -2.4117,-0.064 -3.5995,-0.0853 -1.188,-0.0212 -2.2855,-0.0428 -3.2757,-0.0428 l -3.0237,0 -5.5074,0.1281 c -0.2157,0 -0.4139,0.0216 -0.5939,0.0641 -0.18,0.0428 -0.3778,0.0641 -0.5938,0.0641 -0.3782,0 -0.7739,0 -1.2059,0.0215 -0.4139,0 -0.8459,0.0425 -1.2779,0.1066 -0.108,0 -0.1981,0 -0.2698,0.0215 -0.072,0 -0.1622,0.0426 -0.2702,0.1066 l -3.2397,0.7691 c -1.8714,0.7259 -3.5274,1.794 -4.9671,3.2034 -1.44,1.4097 -2.6459,3.054 -3.5819,4.9762 -0.9538,1.9222 -1.6194,3.9937 -2.0154,6.215 -0.3963,2.2209 -0.468,4.5278 -0.2339,6.8768 0.4859,4.0794 1.5838,7.4325 3.2933,10.0806 1.7277,2.6484 4.1216,4.7412 7.1813,6.3218 l 3.8874,1.4094 0.108,0 -0.108,0.2563 z m -4.2114,-0.7688 c -2.124,-0.8328 -3.9597,-2.1144 -5.5253,-3.8228 -1.548,-1.7087 -2.8077,-3.7162 -3.7437,-6.0228 -0.9357,-2.3065 -1.5656,-4.7412 -1.8536,-7.3256 -0.2338,-2.3918 -0.1442,-4.7624 0.252,-7.1118 0.4139,-2.3493 1.1158,-4.549 2.1056,-6.5993 1.008,-2.0503 2.2677,-3.8444 3.7976,-5.3606 1.5298,-1.5163 3.2936,-2.6269 5.2914,-3.3531 0.8459,-0.2563 1.5117,-0.4272 1.9616,-0.5553 0.4501,-0.1066 0.7923,-0.1922 1.008,-0.2347 0.2338,-0.0216 0.432,-0.0641 0.5938,-0.1069 0.108,0 0.1982,0 0.2702,-0.0213 0.072,0 0.1618,-0.0428 0.2698,-0.1068 0.216,0 0.432,-0.0213 0.648,-0.0641 0.216,-0.0428 0.432,-0.0641 0.648,-0.0641 l 0.5398,0 c 1.4757,-0.064 2.6637,-0.1068 3.5458,-0.1496 0.8997,-0.0426 1.5837,-0.0641 2.0696,-0.0854 0.4859,0 0.8459,-0.0212 1.0979,-0.0212 0.252,0 0.4501,0 0.6298,0 l 1.08,0 c 0.3779,0 0.7379,0 1.0619,0.0212 0.324,0 0.612,0.0428 0.8818,0.1069 0.9902,0 2.0877,0 3.2757,0.0213 1.1878,0 2.3936,0.0212 3.5995,0.0428 1.2058,0.0212 2.3397,0.0212 3.3837,0.0425 1.0437,0.0215 1.9077,0.0215 2.5914,0.0215 l 1.296,0 0,0.3844 -1.296,-0.1281 c -0.6837,0 -1.5477,0 -2.5914,-0.0213 -1.044,-0.0215 -2.1779,-0.0215 -3.3837,-0.0428 -1.2059,-0.0212 -2.4117,-0.0428 -3.5995,-0.0428 -1.188,-0.0212 -2.2855,-0.0212 -3.2757,-0.0212 l -3.0237,0 -7.3431,0.1281 c -0.054,0 -0.1259,0.0212 -0.2339,0.064 -0.09,0.0429 -0.1979,0.0641 -0.3059,0.0641 l -1.296,0 c -0.108,0.0641 -0.1981,0.1069 -0.2698,0.1069 -0.072,0.0212 -0.1622,0.0212 -0.2702,0.0212 l -3.4554,0.8969 c -1.9978,0.6835 -3.7437,1.7728 -5.2376,3.2678 -1.4757,1.4737 -2.7175,3.225 -3.6714,5.2537 -0.9538,2.0291 -1.6378,4.186 -2.0517,6.514 -0.4141,2.3066 -0.54,4.6344 -0.3781,7.005 0.4501,4.1006 1.584,7.5818 3.4378,10.4437 1.8717,2.8619 4.3914,5.0616 7.577,6.5993 0.8099,0.3204 1.5477,0.5979 2.2136,0.8544 0.6661,0.2347 1.296,0.4269 1.8898,0.555 l -0.108,0.2566 c -0.5397,-0.1284 -1.1517,-0.3206 -1.8535,-0.5553 -0.684,-0.2563 -1.44,-0.5341 -2.2499,-0.8544 z m 5.6154,-2.6909 c -0.108,0 -0.216,-0.0216 -0.324,-0.0641 -0.108,-0.0428 -0.216,-0.0641 -0.324,-0.0641 -1.8895,-0.4699 -3.7074,-1.3456 -5.4175,-2.6056 -1.7096,-1.26 -3.1675,-2.9046 -4.3555,-4.9549 -1.1877,-2.0503 -1.9615,-4.485 -2.3215,-7.3041 -0.3062,-2.7549 -0.1259,-5.3393 0.5218,-7.7099 0.648,-2.3919 1.7099,-4.4634 3.1317,-6.1934 1.4398,-1.73 3.1678,-2.99 5.2013,-3.7803 0.648,-0.1709 1.1339,-0.2991 1.4579,-0.4056 0.3418,-0.0857 0.576,-0.1497 0.72,-0.1922 0.144,-0.0216 0.252,-0.0428 0.3058,-0.0428 0.108,0 0.216,-0.0213 0.324,-0.0641 0.108,-0.0428 0.216,-0.0641 0.324,-0.0641 0.324,-0.064 0.684,-0.1068 1.0438,-0.1068 0.36,-0.0213 0.7378,-0.0213 1.116,-0.0213 1.4938,-0.0215 2.7535,-0.0856 3.7797,-0.1709 1.0256,-0.0853 1.9616,-0.0641 2.8074,0.0428 l 3.0237,0 c 0.9902,0 2.0699,0 3.2576,0.0212 1.1699,0 2.3579,0.0213 3.5637,0.0428 1.1877,0.0213 2.3037,0.0213 3.3475,0.0426 1.0258,0 1.8898,0.0215 2.5735,0.0215 l 1.404,0 0,0.3844 -1.404,-0.1281 c -0.6837,0 -1.5477,-0.0213 -2.5735,-0.0213 -1.0438,-0.0215 -2.1598,-0.0215 -3.3475,-0.0428 -1.2058,-0.0213 -2.3938,-0.0428 -3.5637,-0.0428 -1.1877,-0.0213 -2.2674,-0.0213 -3.2576,-0.0213 l -3.0237,0 -7.1271,0.1282 -0.54,0 c -0.1619,0.064 -0.3416,0.0853 -0.5579,0.1068 -0.1979,0.0213 -0.4139,0.0213 -0.6299,0.0213 -0.054,0.0641 -0.1258,0.0853 -0.2338,0.1069 -0.09,0.0212 -0.1982,0.0212 -0.3062,0.0212 l -2.4837,0.6406 c -2.0157,0.7903 -3.7255,2.0931 -5.0933,3.8656 -1.3677,1.7728 -2.3578,3.8444 -2.9877,6.1938 -0.612,2.349 -0.7917,4.8052 -0.5578,7.368 0.3058,2.7338 1.0437,5.0616 2.1957,7.0266 1.1517,1.9647 2.5736,3.5453 4.2834,4.784 1.7099,1.2172 3.5456,2.1144 5.5074,2.6694 0.108,0 0.216,0.0215 0.324,0.0643 0.108,0.0425 0.216,0.0641 0.324,0.0641 l 0,0.1281 -0.108,0.2563 z m 23.7569,-31.2667 c -0.6837,0 -1.5477,-0.0216 -2.5735,-0.0428 -1.0438,-0.0213 -2.1598,-0.0641 -3.3475,-0.0854 -1.2058,-0.0428 -2.3938,-0.064 -3.5637,-0.0856 -1.1877,-0.0212 -2.2674,-0.0425 -3.2576,-0.0425 l -3.0237,0 -7.0191,0.2563 -1.6198,0 c -0.108,0.064 -0.1978,0.0853 -0.2701,0.1068 -0.072,0.0213 -0.1619,0.0213 -0.2699,0.0213 -0.324,0 -0.6658,0.0853 -1.0258,0.2134 -0.36,0.1069 -0.7019,0.2138 -1.0259,0.2991 -1.7997,0.6622 -3.3117,1.794 -4.4997,3.3531 -1.2058,1.5803 -2.0517,3.3956 -2.5914,5.51 -0.5219,2.0931 -0.684,4.2502 -0.468,6.514 0.2698,2.4987 0.8818,4.6131 1.8357,6.3431 0.9539,1.7084 2.1957,3.0965 3.7077,4.1431 1.512,1.0465 3.2216,1.8153 5.1474,2.3281 0.1619,0.0641 0.324,0.1281 0.468,0.1706 0.1619,0.0641 0.2878,0.0856 0.3958,0.0856 l 0,0.2563 c -0.1619,0 -0.324,-0.0213 -0.4859,-0.0856 -0.1619,-0.0425 -0.324,-0.1066 -0.4859,-0.1707 -1.9437,-0.5125 -3.6898,-1.3028 -5.2194,-2.3706 -1.5298,-1.0678 -2.7717,-2.4775 -3.7437,-4.2287 -0.9539,-1.7728 -1.5659,-3.9297 -1.8357,-6.4712 -0.216,-2.3066 -0.054,-4.5062 0.4858,-6.6421 0.5222,-2.1357 1.3862,-3.9938 2.6099,-5.5956 1.2059,-1.6016 2.7357,-2.7335 4.5714,-3.3957 0.792,-0.1922 1.3317,-0.3203 1.6019,-0.4059 0.288,-0.0853 0.4858,-0.1066 0.5578,-0.1066 0.054,0 0.144,0 0.2342,-0.0215 0.09,-0.0213 0.1978,-0.0425 0.3058,-0.1066 l 1.0798,0 c 0.108,0 0.216,0 0.3061,-0.0215 0.108,-0.0213 0.1797,-0.0426 0.2339,-0.1066 1.4218,-0.0428 2.5557,-0.0641 3.4197,-0.0856 0.8637,0 1.5298,-0.0213 1.9978,-0.0213 0.468,-0.0212 0.8099,-0.0212 1.0438,-0.0212 0.216,0 0.4138,0 0.5578,0 l 3.0237,0 c 0.9902,0 2.0699,0 3.2576,0.0212 1.1699,0.0213 2.3579,0.0213 3.5637,0.0641 1.1877,0.0212 2.3037,0.0428 3.3475,0.064 1.0258,0.0428 1.8898,0.0641 2.5735,0.1069 l 1.404,0 0,0.2563 -1.404,0 z m -23.2171,29.857 c -0.1619,0 -0.3059,-0.0213 -0.4318,-0.0853 -0.1258,-0.0428 -0.2701,-0.1069 -0.432,-0.171 -3.0778,-0.7474 -5.5794,-2.2212 -7.4692,-4.4209 -1.9078,-2.1997 -3.1496,-5.2112 -3.7613,-9.034 -0.1982,-2.4134 -0.036,-4.7199 0.5397,-6.8984 0.5581,-2.1784 1.4757,-4.1006 2.7357,-5.7237 1.2779,-1.6444 2.8437,-2.8618 4.7154,-3.6519 0.8459,-0.2562 1.404,-0.4059 1.7099,-0.4484 0.288,-0.0641 0.4858,-0.0856 0.5578,-0.0641 0.108,-0.0643 0.216,-0.1068 0.324,-0.1068 0.108,-0.0216 0.216,-0.0216 0.324,-0.0216 0.108,-0.064 0.2702,-0.1066 0.4678,-0.1066 0.1802,-0.0215 0.3962,-0.0215 0.612,-0.0215 l 0.54,0 c 1.4218,-0.0641 2.5557,-0.1066 3.4197,-0.1494 0.8637,-0.0428 1.5298,-0.0641 1.9978,-0.0853 0.468,0 0.8099,-0.0216 1.0438,-0.0216 0.216,0 0.4138,0 0.5578,0 l 3.0237,0 c 0.9902,0 2.0699,0.0216 3.2216,0.0641 1.1699,0.0215 2.34,0.0641 3.5096,0.1069 1.188,0.0428 2.3037,0.0853 3.3477,0.1068 1.0259,0 1.9256,0 2.6634,-0.0215 l 1.404,0 0,0.2565 -1.404,0 c -0.6837,0 -1.5477,0 -2.5735,-0.0215 -1.0438,-0.0213 -2.1598,-0.0213 -3.3475,-0.0428 -1.2058,-0.0213 -2.3938,-0.0425 -3.5637,-0.0425 -1.1877,-0.0216 -2.2674,-0.0216 -3.2576,-0.0216 l -1.8357,0 c -0.216,0 -0.432,0 -0.6298,-0.0212 -0.1982,-0.0213 -0.396,-0.0428 -0.5582,-0.1069 l -7.0191,0.2565 -0.54,0 c -0.2158,0.0641 -0.4318,0.0854 -0.612,0.1066 -0.1976,0.0216 -0.3598,0.0216 -0.4678,0.0216 -0.108,0 -0.216,0.0212 -0.324,0.064 -0.108,0.0425 -0.216,0.0641 -0.324,0.0641 l -2.1597,0.5125 c -1.8357,0.7047 -3.3834,1.8794 -4.6253,3.5237 -1.2421,1.6447 -2.1418,3.5453 -2.6997,5.7238 -0.54,2.1784 -0.6843,4.4209 -0.4501,6.7702 0.2701,2.5628 0.8821,4.72 1.872,6.514 0.9896,1.7938 2.2496,3.2463 3.8154,4.3353 1.5659,1.1107 3.3296,1.8794 5.3274,2.3494 0.108,0.0641 0.252,0.1281 0.3958,0.1709 0.144,0.0641 0.3061,0.0853 0.468,0.0853 l -0.108,0.2563 z m -0.3238,0.6406 c -0.108,0 -0.216,-0.0212 -0.324,-0.064 -0.108,-0.0426 -0.216,-0.0641 -0.324,-0.0641 -2.0698,-0.5978 -3.9234,-1.495 -5.5972,-2.6909 -1.656,-1.196 -3.0056,-2.755 -4.0675,-4.6559 -1.0621,-1.9007 -1.728,-4.186 -1.9981,-6.8769 -0.216,-1.8153 -0.1797,-3.6093 0.1083,-5.3606 0.2698,-1.7728 0.7738,-3.4384 1.4935,-4.9762 0.7382,-1.5378 1.656,-2.8831 2.7899,-4.0365 1.1339,-1.1319 2.4296,-1.9863 3.9234,-2.5416 0.9,-0.2562 1.4939,-0.4056 1.7997,-0.4697 0.3062,-0.064 0.504,-0.1281 0.576,-0.1709 l 0.648,0 c 0.1622,-0.0641 0.3419,-0.1069 0.54,-0.1069 0.1982,-0.0212 0.3779,-0.0212 0.5398,-0.0212 l 0.648,0 c 1.4218,-0.0641 2.5557,-0.1069 3.4015,-0.1494 0.864,-0.0428 1.512,-0.0641 1.98,-0.0856 0.4496,0 0.7918,-0.0213 1.0256,-0.0213 0.2342,0 0.4323,0 0.612,0 l 3.0237,0 c 0.9902,0 2.0699,0.0213 3.2576,0.0428 1.1699,0.0213 2.3579,0.0425 3.5637,0.0853 1.1877,0.0213 2.3037,0.0641 3.3475,0.0854 1.0258,0.0215 1.8898,0.0428 2.5735,0.0428 l 1.404,0 0,0.2562 -1.404,0 c -0.7378,0 -1.6375,-0.0212 -2.6634,-0.0425 -1.044,-0.0215 -2.1597,-0.0641 -3.3477,-0.0856 -1.1696,-0.0428 -2.3397,-0.0641 -3.5096,-0.0853 -1.1517,-0.0216 -2.2314,-0.0428 -3.2216,-0.0428 l -3.0237,0 -7.0191,0.2562 -0.54,0 c -0.2158,0 -0.4318,0 -0.6299,0.0216 -0.1979,0 -0.3957,0.0425 -0.5579,0.1065 l -0.54,0 -2.3757,0.641 c -1.9437,0.7475 -3.5815,1.9646 -4.9135,3.6518 -1.3139,1.6872 -2.2675,3.6734 -2.8435,5.9159 -0.576,2.2641 -0.72,4.6131 -0.4498,7.0906 0.2698,2.7125 0.9178,4.9975 1.9615,6.8556 1.044,1.8581 2.3758,3.3744 3.9958,4.5062 1.6375,1.1535 3.4554,2.0291 5.4892,2.6057 0.1619,0 0.3059,0.0215 0.4142,0.064 0.1258,0.0428 0.2338,0.0641 0.3416,0.0641 l -0.1078,0.2562 z m 5.7232,6.9197 c 0.018,-0.9822 0.288,-1.8366 0.8099,-2.52 0.5218,-0.6834 1.224,-1.0466 2.1058,-1.0678 0.756,0 1.4037,0.2562 1.9437,0.7687 l -4.2114,5.1256 c -0.432,-0.6406 -0.648,-1.4094 -0.648,-2.3065 z m 2.9157,3.7162 c -0.324,0 -0.648,-0.0641 -0.9538,-0.1922 -0.3059,-0.1281 -0.612,-0.3203 -0.8819,-0.5766 l 4.2114,-4.9974 c 0.216,0.3203 0.3779,0.6406 0.4859,0.9822 0.108,0.3203 0.1621,0.6834 0.1621,1.0678 -0.018,1.0465 -0.3061,1.9222 -0.864,2.6271 -0.5578,0.7047 -1.2778,1.0678 -2.1597,1.0891 z m -5.7231,-6.279 -1.296,3.8443 c -0.216,0.5766 -0.3779,1.1319 -0.4859,1.6659 -0.108,0.5126 -0.1619,0.9397 -0.1619,1.2813 0,0.4487 0.036,0.8116 0.09,1.0678 0.054,0.2778 0.1262,0.47 0.2342,0.5981 l 0.216,0.5125 c 0,0 -0.018,-0.0212 -0.072,-0.0853 -0.054,-0.0428 -0.144,-0.1069 -0.252,-0.1709 -0.108,-0.1069 -0.2339,-0.2775 -0.36,-0.4913 -0.1262,-0.1922 -0.2158,-0.5553 -0.288,-1.0462 -0.054,-0.3847 -0.018,-0.8972 0.09,-1.5166 0.108,-0.5978 0.2877,-1.3028 0.5579,-2.0715 l 1.2957,-3.8444 c 0.216,-0.7047 0.4501,-1.4094 0.7021,-2.0928 0.2517,-0.6622 0.4859,-1.3028 0.7019,-1.8796 0.288,-0.7047 0.5938,-1.3454 0.936,-1.8794 0.3418,-0.5338 0.6837,-0.9397 1.0077,-1.196 0.2699,-0.2562 0.4859,-0.4056 0.684,-0.4484 0.18,-0.0641 0.3421,-0.0856 0.504,-0.0641 0.108,0.0641 0.216,0.1069 0.3059,0.1069 0.072,0.0213 0.1258,0.0213 0.1258,0.0213 0,0 -0.054,0.0212 -0.144,0.064 -0.09,0.0428 -0.2338,0.0641 -0.3957,0.0641 -0.108,0.0428 -0.2341,0.1281 -0.4139,0.2562 -0.1802,0.1069 -0.3962,0.3204 -0.6661,0.6407 -0.2699,0.2562 -0.5397,0.6409 -0.792,1.1106 -0.252,0.47 -0.504,1.0037 -0.7197,1.5806 l -1.4037,3.9722 z m -3.7798,1.0253 c -0.1621,0.3203 -0.324,0.6406 -0.4498,0.9397 -0.1443,0.3203 -0.252,0.5978 -0.3062,0.8543 -0.054,0.1281 -0.1258,0.2563 -0.1981,0.3844 -0.072,0.1281 -0.1077,0.2562 -0.1259,0.3844 0,0.2562 0.108,0.5125 0.324,0.7687 l 0,0.1282 c -0.054,0 -0.072,0 -0.09,-0.0213 -0.018,0 -0.018,-0.0428 -0.018,-0.1069 -0.108,-0.1281 -0.216,-0.2562 -0.2877,-0.4056 -0.09,-0.1281 -0.144,-0.2991 -0.144,-0.4913 0,-0.1281 0.036,-0.2562 0.072,-0.3843 0.036,-0.1282 0.09,-0.2563 0.144,-0.3844 l 0.54,-1.9222 0.864,-2.4347 c 0.1619,-0.3846 0.3062,-0.769 0.432,-1.1321 0.1259,-0.3416 0.2699,-0.6619 0.4318,-0.9182 l 0.864,-2.0503 c 0.054,-0.1281 0.108,-0.2562 0.18,-0.3843 0.072,-0.1282 0.144,-0.2566 0.252,-0.3847 0.108,-0.0641 0.252,-0.1066 0.3957,-0.1066 0.1443,-0.0215 0.3061,-0.0215 0.468,-0.0215 0.108,0 0.216,0.0215 0.324,0.064 0.1083,0.0428 0.2163,0.0641 0.3243,0.0641 l -0.6483,0 c -0.108,0 -0.2339,0 -0.36,0.0215 -0.1259,0 -0.216,0.0426 -0.2877,0.1066 l -0.324,0.8972 -0.648,2.0503 -0.8638,2.1784 -0.864,2.3066 z m 28.6166,-36.9051 c 0,-0.0641 -0.018,-0.1066 -0.054,-0.1282 -0.036,-0.0212 -0.054,-0.064 -0.054,-0.1281 l 0,-4.8693 c 0,-0.0641 0.018,-0.1282 0.054,-0.171 0.036,-0.064 0.054,-0.0853 0.054,-0.0853 l 0,5.3819 z m 0.108,-8.2009 c 0,0.1281 -0.018,0.2562 -0.054,0.3843 -0.036,0.1282 -0.054,0.2563 -0.054,0.3844 l 0,-0.7687 c 0,0 -0.018,-0.0216 -0.054,-0.0857 -0.036,-0.0425 -0.054,-0.1065 -0.054,-0.1706 0.054,0.0641 0.09,0.1281 0.108,0.1706 0.018,0.0641 0.054,0.0857 0.108,0.0857 z m -0.108,11.0202 0,-0.6409 c 0,0.1281 0.018,0.2778 0.054,0.4272 0.036,0.1496 0.054,0.2562 0.054,0.3418 -0.054,0.0641 -0.09,0.0854 -0.108,0.1066 -0.018,0.0216 -0.054,0.0216 -0.108,0.0216 0,0 0.018,-0.0428 0.054,-0.0856 0.036,-0.0426 0.054,-0.1066 0.054,-0.1707 z m -28.9406,37.9298 0.216,0.2566 c 0,0 -0.054,-0.0428 -0.1261,-0.1069 -0.09,-0.0641 -0.1979,-0.1497 -0.3059,-0.2778 0,0.0641 0.036,0.1069 0.072,0.1069 0.036,0.0212 0.09,0.0212 0.144,0.0212 z m 27.8606,-49.7191 c 0.054,0 0.1259,0.0216 0.2342,0.0856 0.09,0.0425 0.1978,0.1066 0.3058,0.1707 -0.108,-0.0641 -0.216,-0.1066 -0.3058,-0.1282 -0.1083,-0.0212 -0.18,-0.064 -0.2342,-0.1281 z m 0,12.5581 c 0.054,-0.0641 0.1259,-0.1069 0.2342,-0.1069 0.09,-0.0213 0.1978,-0.0213 0.3058,-0.0213 -0.108,0.0641 -0.216,0.0854 -0.3058,0.1069 -0.1083,0.0213 -0.18,0.0213 -0.2342,0.0213 z m 0.972,-0.5125 -0.216,0.2562 c 0,-0.0641 0.018,-0.1069 0.072,-0.1281 0.036,-0.0216 0.09,-0.0641 0.144,-0.1281 z m 11.412,-66.0365 c 12.4033,12.403 22.0272,26.5334 28.8718,41.6166 l -20.933,8.7681 c -5.7308,-12.4413 -13.722,-24.0976 -23.9738,-34.3497 -46.4936,-46.49359 -121.8758,-46.49359 -168.3694,0 -46.4936,46.4936 -46.4936,121.8759 0,168.3695 46.4936,46.4935 121.8758,46.4935 168.3694,0 10.2385,-10.2385 18.2223,-21.8778 23.9516,-34.3012 l 20.9546,8.7208 c -6.8445,15.0828 -16.4682,29.2124 -28.8712,41.6154 -55.3495,55.3498 -145.0899,55.3498 -200.4394,0 -55.3499,-55.3496 -55.3499,-145.0899 0,-200.4395 55.3495,-55.34989 145.0899,-55.34989 200.4394,0 z" />
    </g>
  </g>
</svg>
